/* XPM */
static char * gollum_xpm[] = {
"40 40 486 2",
"  	c None",
". 	c #685B50",
"+ 	c #6C594D",
"@ 	c #6B594D",
"# 	c #7D6B5F",
"$ 	c #A69387",
"% 	c #79685B",
"& 	c #837267",
"* 	c #A48E7E",
"= 	c #A68D7F",
"- 	c #856E5F",
"; 	c #977F71",
"> 	c #B39E8F",
", 	c #C4AB9B",
"' 	c #8D6E5C",
") 	c #A58A77",
"! 	c #887466",
"~ 	c #A08979",
"{ 	c #CDB19C",
"] 	c #BAA090",
"^ 	c #A68B7A",
"/ 	c #C0A593",
"( 	c #D8C1AC",
"_ 	c #D9C1AD",
": 	c #AD8D79",
"< 	c #AE8C75",
"[ 	c #AB917C",
"} 	c #78695E",
"| 	c #AB9281",
"1 	c #CCB19E",
"2 	c #CFB09C",
"3 	c #705847",
"4 	c #C9AC96",
"5 	c #E0BDA6",
"6 	c #E1BDA5",
"7 	c #E2BCA6",
"8 	c #E1BDA6",
"9 	c #A08471",
"0 	c #A1826B",
"a 	c #B39A86",
"b 	c #7C675B",
"c 	c #AD9180",
"d 	c #D1B5A0",
"e 	c #E0BDA8",
"f 	c #715746",
"g 	c #B49782",
"h 	c #C8A68D",
"i 	c #C7A68C",
"j 	c #C6A68E",
"k 	c #C5A68F",
"l 	c #A58570",
"m 	c #A88972",
"n 	c #B59984",
"o 	c #A78B76",
"p 	c #705C50",
"q 	c #AA8E7C",
"r 	c #D2B4A1",
"s 	c #E0BEA7",
"t 	c #CAAC95",
"u 	c #D7B59E",
"v 	c #DBB89F",
"w 	c #D8B9A2",
"x 	c #D1BCAA",
"y 	c #D4BBA7",
"z 	c #CEB4A2",
"A 	c #C3A68F",
"B 	c #B59982",
"C 	c #AC8A6E",
"D 	c #AA8A74",
"E 	c #786153",
"F 	c #A98C7C",
"G 	c #C9AB96",
"H 	c #B99981",
"I 	c #BA997F",
"J 	c #B9997F",
"K 	c #CEAC96",
"L 	c #E0BDA7",
"M 	c #DDBFA9",
"N 	c #DBBFAA",
"O 	c #D9C1AE",
"P 	c #BEA691",
"Q 	c #9B836C",
"R 	c #C1977C",
"S 	c #947660",
"T 	c #AF917E",
"U 	c #C1A38D",
"V 	c #906D51",
"W 	c #AA9586",
"X 	c #958276",
"Y 	c #B29584",
"Z 	c #D3AE97",
"` 	c #DAB8A0",
" .	c #D9B8A1",
"..	c #CEB19D",
"+.	c #B1947F",
"@.	c #8F745F",
"#.	c #AE8A6B",
"$.	c #E4BCA5",
"%.	c #BD987E",
"&.	c #C09E86",
"*.	c #C7A791",
"=.	c #AF8668",
"-.	c #F3EDE9",
";.	c #BAC1CC",
">.	c #958F8D",
",.	c #977862",
"'.	c #C7A68E",
").	c #98785F",
"!.	c #A28165",
"~.	c #B49A83",
"{.	c #AF896E",
"].	c #E2BDA4",
"^.	c #BE987D",
"/.	c #C09E87",
"(.	c #C8A790",
"_.	c #AD8769",
":.	c #F2EDE9",
"<.	c #7C7E88",
"[.	c #645851",
"}.	c #C4A790",
"|.	c #DFBEAA",
"1.	c #76665D",
"2.	c #866F5D",
"3.	c #B69983",
"4.	c #A89582",
"5.	c #AE937E",
"6.	c #AE9076",
"7.	c #B0896D",
"8.	c #D3B39D",
"9.	c #CAAB94",
"0.	c #D1B298",
"a.	c #DAB89F",
"b.	c #D7B198",
"c.	c #C2A896",
"d.	c #B19888",
"e.	c #A08573",
"f.	c #A78D76",
"g.	c #D5BBA6",
"h.	c #B49A84",
"i.	c #AB9580",
"j.	c #C1A188",
"k.	c #C1A48C",
"l.	c #C2A38A",
"m.	c #C19F86",
"n.	c #BF9E87",
"o.	c #CCAC94",
"p.	c #D4B49E",
"q.	c #D8B9A4",
"r.	c #DCC0AB",
"s.	c #C5A791",
"t.	c #C6A695",
"u.	c #CAAB93",
"v.	c #DDBFAE",
"w.	c #E0BEA6",
"x.	c #BA987C",
"y.	c #B39984",
"z.	c #B99C84",
"A.	c #CCB19A",
"B.	c #D1B7A1",
"C.	c #D3B69E",
"D.	c #D4B69E",
"E.	c #BB9A80",
"F.	c #C5A48C",
"G.	c #CBAC99",
"H.	c #CEB49F",
"I.	c #C2AC9E",
"J.	c #D3BDA8",
"K.	c #D9C0B0",
"L.	c #DDC0AA",
"M.	c #BE9E84",
"N.	c #B59A83",
"O.	c #B1927A",
"P.	c #D0B39D",
"Q.	c #D6BEA9",
"R.	c #DDBFAA",
"S.	c #DAC1AD",
"T.	c #BB9980",
"U.	c #C09E85",
"V.	c #CBAE98",
"W.	c #5B442F",
"X.	c #C7AB8E",
"Y.	c #E0BEA4",
"Z.	c #E1BDA3",
"`.	c #E0C09E",
" +	c #CEB19B",
".+	c #CEB199",
"++	c #C0A68F",
"@+	c #B39988",
"#+	c #AB9480",
"$+	c #BB9B83",
"%+	c #CFB39C",
"&+	c #D8C1B0",
"*+	c #B38F74",
"=+	c #C89F85",
"-+	c #DCB79E",
";+	c #C6A78C",
">+	c #C6A58F",
",+	c #B59175",
"'+	c #CDAE97",
")+	c #D8C2AA",
"!+	c #B3A563",
"~+	c #877834",
"{+	c #756132",
"]+	c #A69842",
"^+	c #CCB297",
"/+	c #BF9F86",
"(+	c #B39987",
"_+	c #AB9383",
":+	c #C0A089",
"<+	c #CAB19A",
"[+	c #D7BDA8",
"}+	c #B58E75",
"|+	c #B38C70",
"1+	c #C6A896",
"2+	c #D7BFAE",
"3+	c #D4BCA6",
"4+	c #C7A68D",
"5+	c #B99477",
"6+	c #B79173",
"7+	c #C29E83",
"8+	c #D7C2AD",
"9+	c #CEBC9A",
"0+	c #C6B497",
"a+	c #C4B19A",
"b+	c #CCBB90",
"c+	c #BE9F83",
"d+	c #B0927F",
"e+	c #BDA28C",
"f+	c #CBB09A",
"g+	c #D6BBA7",
"h+	c #DEBFA9",
"i+	c #A5775A",
"j+	c #B28B6F",
"k+	c #C8AC94",
"l+	c #D6C0AE",
"m+	c #D4BAA6",
"n+	c #CAAE94",
"o+	c #BC9B81",
"p+	c #B59074",
"q+	c #BB9376",
"r+	c #CEA88F",
"s+	c #C6A891",
"t+	c #C6A893",
"u+	c #C5A893",
"v+	c #C5A98F",
"w+	c #C6A892",
"x+	c #AE8A6E",
"y+	c #AA866E",
"z+	c #BE9B82",
"A+	c #CCB19B",
"B+	c #D8BEAC",
"C+	c #DEBEA8",
"D+	c #A77758",
"E+	c #B38B70",
"F+	c #C7AA92",
"G+	c #D5BCA8",
"H+	c #C9AB93",
"I+	c #C3A38C",
"J+	c #BE9D85",
"K+	c #BD997E",
"L+	c #C1997F",
"M+	c #B48A6C",
"N+	c #AF876B",
"O+	c #B48B6D",
"P+	c #B79074",
"Q+	c #A87F62",
"R+	c #835941",
"S+	c #8A573D",
"T+	c #AF8F75",
"U+	c #D1B8A0",
"V+	c #A5785A",
"W+	c #B38B6E",
"X+	c #D2B79F",
"Y+	c #E1BEA4",
"Z+	c #B48E74",
"`+	c #CAAB91",
" @	c #D0B49B",
".@	c #D4B49A",
"+@	c #E1B598",
"@@	c #B78E72",
"#@	c #A97E5F",
"$@	c #AE8668",
"%@	c #BB967D",
"&@	c #C9A58C",
"*@	c #B59176",
"=@	c #614133",
"-@	c #D1B19D",
";@	c #CEB39B",
">@	c #B28E77",
",@	c #9E765F",
"'@	c #D0B39C",
")@	c #D0B39A",
"!@	c #BC9B82",
"~@	c #C3A48A",
"{@	c #D4B79E",
"]@	c #E3BCA4",
"^@	c #A47759",
"/@	c #BE9A7E",
"(@	c #D1AE92",
"_@	c #D0AA90",
":@	c #A4785B",
"<@	c #A2795E",
"[@	c #B3917F",
"}@	c #C19B81",
"|@	c #DFB69B",
"1@	c #B49279",
"2@	c #A4836F",
"3@	c #CEB29C",
"4@	c #D3BBA9",
"5@	c #CCAF9D",
"6@	c #BA987F",
"7@	c #9E775F",
"8@	c #9F775E",
"9@	c #B18B6F",
"0@	c #D4B69F",
"a@	c #A57757",
"b@	c #B68E71",
"c@	c #AD8A6F",
"d@	c #9E7F69",
"e@	c #B4917A",
"f@	c #DCB79D",
"g@	c #B59279",
"h@	c #B49179",
"i@	c #D8BDA7",
"j@	c #D5B9A5",
"k@	c #A3785E",
"l@	c #7A4D33",
"m@	c #AA8467",
"n@	c #C3A38B",
"o@	c #A57658",
"p@	c #987258",
"q@	c #9F7D63",
"r@	c #A7876C",
"s@	c #A27D5E",
"t@	c #A57D5B",
"u@	c #C29C82",
"v@	c #DFBAA1",
"w@	c #CDB39B",
"x@	c #DDBAA2",
"y@	c #D9B7A2",
"z@	c #B59278",
"A@	c #66402A",
"B@	c #A78369",
"C@	c #C4A38C",
"D@	c #D5B69E",
"E@	c #E1BDA4",
"F@	c #A67659",
"G@	c #79523A",
"H@	c #9E7A65",
"I@	c #BF977A",
"J@	c #AA8061",
"K@	c #AA805F",
"L@	c #AB9279",
"M@	c #AB8D76",
"N@	c #C39E82",
"O@	c #DCBBA4",
"P@	c #D8B7A2",
"Q@	c #C8AA94",
"R@	c #B79177",
"S@	c #674029",
"T@	c #A68368",
"U@	c #C2A48A",
"V@	c #93715A",
"W@	c #B48F71",
"X@	c #B78F70",
"Y@	c #9E795A",
"Z@	c #A68267",
"`@	c #C19E84",
" #	c #B49278",
".#	c #B59178",
"+#	c #CAAA91",
"@#	c #C1A38B",
"##	c #B69176",
"$#	c #66402B",
"%#	c #A7826A",
"&#	c #C4A38B",
"*#	c #D5B69F",
"=#	c #A57759",
"-#	c #8E674C",
";#	c #866145",
">#	c #866245",
",#	c #886045",
"'#	c #A57758",
")#	c #9E714F",
"!#	c #A78267",
"~#	c #BF9F87",
"{#	c #DAC0AE",
"]#	c #B39279",
"^#	c #917159",
"/#	c #B49177",
"(#	c #B9967B",
"_#	c #AE8A6F",
":#	c #937056",
"<#	c #7B5C4B",
"[#	c #A38069",
"}#	c #C3A28A",
"|#	c #D4B59F",
"1#	c #CDB29B",
"2#	c #AB866C",
"3#	c #A47D60",
"4#	c #AB8569",
"5#	c #AA856A",
"6#	c #966D4E",
"7#	c #987960",
"8#	c #BE9F8A",
"9#	c #D2B6A2",
"0#	c #B89E89",
"a#	c #9E7D64",
"b#	c #A07C62",
"c#	c #9F7D61",
"d#	c #A17C61",
"e#	c #9E7D66",
"f#	c #90725F",
"g#	c #B59A84",
"h#	c #D9BDA6",
"i#	c #C8A893",
"j#	c #B8937A",
"k#	c #AE8463",
"l#	c #AD8467",
"m#	c #946E4E",
"n#	c #917054",
"o#	c #AE947F",
"p#	c #C5AC99",
"q#	c #C9AC95",
"r#	c #BFA48F",
"s#	c #B2927E",
"t#	c #B2927D",
"u#	c #B8977D",
"v#	c #A4846A",
"w#	c #9B7D64",
"x#	c #A4836B",
"y#	c #BA977B",
"z#	c #AF937E",
"A#	c #D4AE95",
"B#	c #D8BAA7",
"C#	c #C8A892",
"D#	c #B08D70",
"E#	c #AF8469",
"F#	c #B8987F",
"G#	c #CCAF9A",
"H#	c #C6AC99",
"I#	c #BD9D85",
"J#	c #B9977F",
"K#	c #C09C81",
"L#	c #B2927A",
"M#	c #C4A48B",
"N#	c #CDAF96",
"O#	c #CDB29A",
"P#	c #CDAE98",
"Q#	c #C4A58C",
"R#	c #82624D",
"S#	c #B3927C",
"T#	c #D3AF95",
"U#	c #DCBCA3",
"V#	c #C7A68B",
"W#	c #D0B39B",
"X#	c #BB9B82",
"Y#	c #AE9481",
"Z#	c #B29378",
"`#	c #C7A78D",
" $	c #B7977F",
".$	c #C6AC98",
"+$	c #C7A78E",
"@$	c #DEB79A",
"#$	c #BF9C82",
"$$	c #B0937C",
"%$	c #80634C",
"&$	c #917057",
"*$	c #9D7D64",
"=$	c #A9886F",
"-$	c #836247",
";$	c #CDB29F",
">$	c #987E66",
",$	c #7A6452",
"'$	c #AC947E",
")$	c #A8886F",
"!$	c #836248",
"~$	c #7E644F",
"{$	c #B39378",
"]$	c #B19379",
"^$	c #AE947E",
"/$	c #A9886E",
"($	c #826249",
"_$	c #B69177",
":$	c #8F7158",
"<$	c #806351",
"                                                                                ",
"                                                                                ",
"                                                                                ",
"                                                                                ",
"                                                                                ",
"                                                                                ",
"                                                                                ",
"                                          . + @ @ # $ %                         ",
"                                        & * = - ; > , ' )                       ",
"                                      ! ~ { ] ^ / ( _ : < [                     ",
"                                    } | 1 2 3 4 5 6 7 8 9 0 a                   ",
"                                    b c d e f g h i j k l m n                   ",
"                                o   p q r s t u v w x y z A B                   ",
"                                C D E F G H I J K L M N O P Q                   ",
"                                C R S T U V W X Y Z `  ...+.@.                  ",
"                                #.$.%.&.*.=.-.;.>.,.h '.).!.~.                  ",
"                                {.].^./.(._.:.;.<.[.}.|.1.2.3.                  ",
"                          4.5.6.7.8.9.0.a.b.c.d.e.f.g.L   m h.                  ",
"                        i.j.k.l.m.n.o.p.q.r.}.s.t.u.v.w.  x.y.                  ",
"                        z.A.B.C.D.E.F.G.H.y I.J.K.L.      M.N.                  ",
"                      O.P.Q.R.6 5 S.T.U.V.'.W.X.Y.Z.`. +.+++@+                  ",
"                  #+$+%+&+*+=+-+;+>+,+&.'+j )+!+~+{+]+^+/+(+                    ",
"                _+:+<+[+}+|+1+2+3+4+5+6+7+ .8+9+0+a+b+c+                        ",
"              d+e+f+g+h+i+j+k+l+m+n+o+p+q+r+s+t+u+v+w+x+                        ",
"              y+z+A+B+C+D+E+F+G+C.H+I+J+K+L+M+=.N+O+P+Q+                        ",
"              R+S+T+U+_ V+W+I+X+Y+Z+`+ @.@+@@@#@$@%@&@*@                        ",
"            =@-@;@>@,@'@)@!@~@{@]@^@/@(@_@:@<@  [@}@|@1@                        ",
"            2@3@4@5@6@7@8@9@~@0@8 a@b@c@d@      e@}@f@g@                        ",
"            h@;@i@j@j k@l@m@n@0@Y+o@p@q@r@s@t@  O.u@v@1@                        ",
"            1@w@x@y@H+z@A@B@C@D@E@F@G@H@I@J@K@L@M@N@E@1@                        ",
"            g@3@O@P@Q@R@S@T@U@D@E@F@G@V@W@b@X@Y@Z@`@Y. #                        ",
"            1@.#+#@#R@##$#%#&#*#Y.=#-#;#>#,#'#)#!#~#{#]#                        ",
"              ^#/#(#_#:#  <#[#}#|#1#2#3#4#5#-#6#7#  8#9#0#                      ",
"              a#b#c#d#e#    f#g#k.h#i#j#k#l#m#n#    o#p#q#r#O.s#t#              ",
"              u#v#w#x#y#        z#A#B#C#D#E#7.        F#G#H#I#J#K#              ",
"            L#M#N#O#P#Q#R#        S#T#U#g.V#W#X#Y#  Z#`# $.$g.+$@$#$$$          ",
"            %$]#&$*$=$-$;$>$,$      '$]#)$!$]#&$~$  {$]$  ^$/$($_$:$<$          ",
"                                                                                ",
"                                                                                ",
"                                                                                "};
