/* XPM */
static char *c36b2d0351134473c0d0b3fdbcb016f0CV8tMJPP0FBXY4F3[] = {
/* columns rows colors chars-per-pixel */
"40 39 238 2 ",
"   c None",
".  c #000100",
"X  c #0D0302",
"o  c #010B04",
"O  c #090D05",
"+  c #140001",
"@  c #1B0102",
"#  c #150B06",
"$  c #001405",
"%  c #001C07",
"&  c #01160A",
"*  c #031C0A",
"=  c #0C1408",
"-  c #151009",
";  c #011E12",
":  c #191814",
">  c #220102",
",  c #2D0605",
"<  c #2C0B0B",
"1  c #240A0D",
"2  c #330303",
"3  c #370709",
"4  c #3B0F17",
"5  c #2C1510",
"6  c #2B1D1C",
"7  c #291814",
"8  c #3D121B",
"9  c #391B14",
"0  c #2B1510",
"q  c #01230A",
"w  c #002B0C",
"e  c #0A2209",
"r  c #17220D",
"t  c #00340E",
"y  c #003A0F",
"u  c #012213",
"i  c #012B11",
"p  c #002B1A",
"a  c #1C2615",
"s  c #003413",
"d  c #003C13",
"f  c #00331D",
"g  c #013C19",
"h  c #0B3717",
"j  c #153418",
"k  c #372A1B",
"l  c #253217",
"z  c #29371A",
"x  c #35391E",
"c  c #28281E",
"v  c #053A21",
"b  c #1C3624",
"n  c #3D2C26",
"m  c #373827",
"M  c #2D3A2D",
"N  c #44070A",
"B  c #470D15",
"V  c #44171A",
"C  c #5C181D",
"Z  c #482719",
"A  c #5A2A1A",
"S  c #4E3A1F",
"D  c #58391A",
"F  c #46200F",
"G  c #65291C",
"H  c #6A3818",
"J  c #491C23",
"K  c #5F1B2A",
"L  c #591722",
"P  c #641E2F",
"I  c #611923",
"U  c #661F30",
"Y  c #4B2422",
"T  c #452A27",
"R  c #582725",
"E  c #453228",
"W  c #453837",
"Q  c #583938",
"!  c #532732",
"~  c #662828",
"^  c #6C2B33",
"/  c #6A293A",
"(  c #702C3D",
")  c #702F35",
"_  c #693635",
"`  c #71343C",
"'  c #753C38",
"]  c #6E3C28",
"[  c #01431C",
"{  c #054419",
"}  c #184519",
"|  c #1F5117",
" . c #27401D",
".. c #384B1C",
"X. c #2A571B",
"o. c #1D641D",
"O. c #2A681A",
"+. c #014422",
"@. c #024C24",
"#. c #0A4C25",
"$. c #134526",
"%. c #035424",
"&. c #0C5C23",
"*. c #00542A",
"=. c #03592E",
"-. c #0C5929",
";. c #125122",
":. c #155929",
">. c #015C32",
",. c #295A25",
"<. c #304734",
"1. c #196928",
"2. c #19732D",
"3. c #016234",
"4. c #056936",
"5. c #00663B",
"6. c #026A3D",
"7. c #0B6B36",
"8. c #146933",
"9. c #0C743A",
"0. c #0C753A",
"q. c #147634",
"w. c #2A782A",
"e. c #2D712F",
"r. c #594617",
"t. c #47561F",
"y. c #65461D",
"u. c #774B16",
"i. c #66581C",
"p. c #71571B",
"a. c #6E661E",
"s. c #484928",
"d. c #574829",
"f. c #445D27",
"g. c #505234",
"h. c #614624",
"j. c #77482A",
"k. c #66582A",
"l. c #7B5825",
"z. c #6C4C39",
"x. c #7A4538",
"c. c #715735",
"v. c #5C6928",
"b. c #507033",
"n. c #76732E",
"m. c #783A45",
"M. c #712D45",
"N. c #027343",
"B. c #0B7D44",
"V. c #017A4D",
"C. c #057945",
"Z. c #007E51",
"A. c #0F7344",
"S. c #584B4B",
"D. c #7E4749",
"F. c #5F6543",
"G. c #77625F",
"H. c #6D5F60",
"J. c #766969",
"K. c #7C7171",
"L. c #6C6060",
"P. c #866C1F",
"I. c #835E2C",
"U. c #825739",
"Y. c #814F3E",
"T. c #866928",
"R. c #87772A",
"E. c #937A2C",
"W. c #876536",
"Q. c #947738",
"!. c #A57927",
"~. c #824C49",
"^. c #824F43",
"/. c #855344",
"(. c #895C43",
"). c #865941",
"_. c #845450",
"`. c #8B6142",
"'. c #8F6D49",
"]. c #9C7845",
"[. c #887D7D",
"{. c #997D70",
"}. c #8D6C67",
"|. c #17803C",
" X c #27822C",
".X c #348829",
"XX c #3E992B",
"oX c #228C3B",
"OX c #298835",
"+X c #2B963B",
"@X c #379D35",
"#X c #308F30",
"$X c #3AA035",
"%X c #65B31D",
"&X c #69B11E",
"*X c #76B11E",
"=X c #69AD1F",
"-X c #468C29",
";X c #469827",
":X c #429A34",
">X c #5B8A27",
",X c #799535",
"<X c #71942B",
"1X c #4CA92B",
"2X c #4AA42B",
"3X c #54AC26",
"4X c #5AAC24",
"5X c #52A929",
"6X c #42A331",
"7X c #53A331",
"8X c #64A824",
"9X c #73AC23",
"0X c #7DAA22",
"qX c #09834B",
"wX c #158A44",
"eX c #118B4B",
"rX c #198943",
"tX c #078852",
"yX c #1C9247",
"uX c #279541",
"iX c #2E9545",
"pX c #618D6C",
"aX c #50934E",
"sX c #94842B",
"dX c #968824",
"fX c #9E9429",
"gX c #91822A",
"hX c #A19928",
"jX c #AD863E",
"kX c #83A225",
"lX c #AB964A",
"zX c #BBA147",
"xX c #CDB066",
"cX c #D1AE52",
"vX c #D3C179",
"bX c #938C8C",
"nX c #A8958D",
"mX c #B9A69F",
/* pixels */
"                                                                                ",
"                      u.u.  I.I.u.T.T.~ ~ ' D.mX_.    }.}.                      ",
"                  H G T.T.H T.E.dXp.H C /.x.[.lXj.E.'.nXg.        x.^ /.Q.j.    ",
"              2 9 z t.f.v.T.T.hXa.X.X.d./.D.~ V _ (.(.Q         ` ~./.`.Q.U.    ",
"              X } XX&XkX>X..dXhXk.[ s X._ m.T 9 Z Q z.Y         3 ^ /.(.`./.I   ",
"            X v +X%X%X&X5X;.s.E.T.;.q { s.m.} q q h X.P.!.        x.(.(.(.m.C   ",
"          1.w.V.yX1X1X3X8X:X .c.R.j p 6.<.n OX.XO.C.7XfXE.u.    ^ /.(.(.~.).]   ",
"        q.3X3XV.Z.tXeX4X*XkXe.g.R.l m b 7 j 4.8.iXtXiX,Xv.r.    ' /.(./.m./._   ",
"      %.C.+XoXqX X2.9.+X3X@X:.z n.d.z e j  X:.pXaX3.8.,X,X..  ( ~.~.^.x.C I V   ",
"    [ &.0.5.qX1X%X0X.X>.9.*.q * k.U.<.g %.@X#XA.} | ;.h $.    R m.( ~ ~ 3 >     ",
"    *.oX2X&.B.1X&X9XOXi w t @.$.s.s.s.q y ;.XX:Xe.S.,.#.      , N N K K 3       ",
"  +.[ wX1Xo.%.0.+XwX5.& % +.tXrXX.h x z q w [ w.>X,X:.f         @ B M.P 3       ",
"  w q N.tX7.t [ @.[ w o % =.eX3X0XOX{ z % $ % s +.i w           > P P P 8       ",
"  & * g =.[ * q q q o q w [ 6.yX+XtX3.* o $ q i f 0.@.          N M.P 3         ",
"  $ * j x ..7 . . . o w d [ d [ >.5.@.w q d *.f 8.5X;.          < / /           ",
"  $ 6 ( `.zXx.@ . . $ q y y y t w w w w { t q w 7.2.            J / B           ",
"    m ) _.xX].0 . . o * t w w w w w w q i w & q 1.e.z         - R ^ 4           ",
"    a R x.xXlX7 . X X X $ * a 7 <.W W 6 : # o =.2X9XQ.!.lXd.e.e.s.m ,.          ",
"      n Y g.n.b & @ L _ Q Q S.[.[.K.K.L.Q E o =.|.e.].cXxXv.q. XOX2.;X          ",
"      = @.oX9X4X-Xj < ~ Y V 1 G.L.bXK.Q 4 0 o q d M m.(.W.z +.s #.:.O.          ",
"      o 7.oX-X8X2X.X4 j.E.p.k.Z W J.L.E i.r.X o $ 6 ` ) ) r s o * .XO.          ",
"      o >.wX2.8X-X;.< ' U.j.fXP.W J.S.r.R.`.J o $ = k r.S # w + v 8.            ",
"    . o g q.w.1.1.% = 7 < Y Q.sXD E S E.U.Y T =             X 2 c v             ",
"    . . % h d % q s 3.6.w # ' U.dXT.T.j.' l 8..X1.            4 8               ",
"    . . . . o . v C.qXuX4.%.Z /.Q.Q.U.5 b oX4X*X0Xe.                            ",
"        . . . * N.@X6X6X:XC.r C x.) Y q 5.+X%X%X9X8Xq.                          ",
"          + . w V.@X3X%X8X0.w 2 N 2 X $ @.B.+X1X1X$X4.                          ",
"          > O q *.9. X2X#X*.$ X @ X . q g 3.V.tXN.6.wX8.                        ",
"          3 5 q s N.$XXX[ i o       . o y %.6.C.*.=.yX7.                        ",
"        , < A j w >.q.&.*           . < 5 : { y q * +.h                         ",
"        > 9 E.n.a & e n E           . 3 V h.n.Z 9 R k.V                         ",
"      > 2 5 R.T.T.D D I.K           > , N V h.A A ] W.R                         ",
"    q 7 C , 3 < y.y.A l.            B ' ) B @ @ +   V                           ",
"    t h V 2 > + X                 $ n S.) V >                                   ",
"    t q $ = = o                   t =.-.$.$.u                                   ",
"  * d =.[ >.*.s                 * [ N.6.qXV.6.:.%.                              ",
"  o [ B.4.qXw.8.o.              & d [ +.Z.Z.C.uX9.-.                            ",
". . i q.q.4.oX:.q.g . . . . . . . $ o o ; p f f p & . .                         ",
". . o ; ; & ; o u & . . . . . . . . . . . . . . . . . .                         "
};
