/* XPM */
static char *_1bd90a9a51e4c9c8249eade04c0d76dCh187tiQvDQiJm7c[] = {
/* columns rows colors chars-per-pixel */
"40 39 238 2 ",
"   c None",
".  c #000100",
"X  c #0D0302",
"o  c #010B04",
"O  c #090D05",
"+  c #140001",
"@  c #1B0102",
"#  c #150B06",
"$  c #001405",
"%  c #001C07",
"&  c #01160A",
"*  c #031C0A",
"=  c #0C1408",
"-  c #151009",
";  c #011E12",
":  c #191814",
">  c #220102",
",  c #2D0605",
"<  c #2C0B0B",
"1  c #240A0D",
"2  c #330303",
"3  c #370709",
"4  c #3B0F17",
"5  c #2C1510",
"6  c #2B1D1C",
"7  c #291814",
"8  c #3D121B",
"9  c #391B14",
"0  c #2B1510",
"q  c #01230A",
"w  c #002B0C",
"e  c #0A2209",
"r  c #17220D",
"t  c #00340E",
"y  c #003A0F",
"u  c #012213",
"i  c #012B11",
"p  c #002B1A",
"a  c #1C2615",
"s  c #003413",
"d  c #003C13",
"f  c #00331D",
"g  c #013C19",
"h  c #0B3717",
"j  c #153418",
"k  c #372A1B",
"l  c #253217",
"z  c #29371A",
"x  c #35391E",
"c  c #28281E",
"v  c #053A21",
"b  c #1C3624",
"n  c #3D2C26",
"m  c #373827",
"M  c #2D3A2D",
"N  c #44070A",
"B  c #470D15",
"V  c #44171A",
"C  c #5C181D",
"Z  c #482719",
"A  c #5A2A1A",
"S  c #4E3A1F",
"D  c #58391A",
"F  c #46200F",
"G  c #65291C",
"H  c #6A3818",
"J  c #491C23",
"K  c #5F1B2A",
"L  c #591722",
"P  c #641E2F",
"I  c #611923",
"U  c #661F30",
"Y  c #4B2422",
"T  c #452A27",
"R  c #582725",
"E  c #453228",
"W  c #453837",
"Q  c #583938",
"!  c #532732",
"~  c #662828",
"^  c #6C2B33",
"/  c #6A293A",
"(  c #702C3D",
")  c #702F35",
"_  c #693635",
"`  c #71343C",
"'  c #753C38",
"]  c #6E3C28",
"[  c #01431C",
"{  c #054419",
"}  c #184519",
"|  c #1F5117",
" . c #27401D",
".. c #384B1C",
"X. c #2A571B",
"o. c #1D641D",
"O. c #2A681A",
"+. c #014422",
"@. c #024C24",
"#. c #0A4C25",
"$. c #134526",
"%. c #035424",
"&. c #0C5C23",
"*. c #00542A",
"=. c #03592E",
"-. c #0C5929",
";. c #125122",
":. c #155929",
">. c #015C32",
",. c #295A25",
"<. c #304734",
"1. c #196928",
"2. c #19732D",
"3. c #016234",
"4. c #056936",
"5. c #00663B",
"6. c #026A3D",
"7. c #0B6B36",
"8. c #146933",
"9. c #0C743A",
"0. c #0C753A",
"q. c #147634",
"w. c #2A782A",
"e. c #2D712F",
"r. c #594617",
"t. c #47561F",
"y. c #65461D",
"u. c #774B16",
"i. c #66581C",
"p. c #71571B",
"a. c #6E661E",
"s. c #484928",
"d. c #574829",
"f. c #445D27",
"g. c #505234",
"h. c #614624",
"j. c #77482A",
"k. c #66582A",
"l. c #7B5825",
"z. c #6C4C39",
"x. c #7A4538",
"c. c #715735",
"v. c #5C6928",
"b. c #507033",
"n. c #76732E",
"m. c #783A45",
"M. c #712D45",
"N. c #027343",
"B. c #0B7D44",
"V. c #017A4D",
"C. c #057945",
"Z. c #007E51",
"A. c #0F7344",
"S. c #584B4B",
"D. c #7E4749",
"F. c #5F6543",
"G. c #77625F",
"H. c #6D5F60",
"J. c #766969",
"K. c #7C7171",
"L. c #6C6060",
"P. c #866C1F",
"I. c #835E2C",
"U. c #825739",
"Y. c #814F3E",
"T. c #866928",
"R. c #87772A",
"E. c #937A2C",
"W. c #876536",
"Q. c #947738",
"!. c #A57927",
"~. c #824C49",
"^. c #824F43",
"/. c #855344",
"(. c #895C43",
"). c #865941",
"_. c #845450",
"`. c #8B6142",
"'. c #8F6D49",
"]. c #9C7845",
"[. c #887D7D",
"{. c #997D70",
"}. c #8D6C67",
"|. c #17803C",
" X c #27822C",
".X c #348829",
"XX c #3E992B",
"oX c #228C3B",
"OX c #298835",
"+X c #2B963B",
"@X c #379D35",
"#X c #308F30",
"$X c #3AA035",
"%X c #65B31D",
"&X c #69B11E",
"*X c #76B11E",
"=X c #69AD1F",
"-X c #468C29",
";X c #469827",
":X c #429A34",
">X c #5B8A27",
",X c #799535",
"<X c #71942B",
"1X c #4CA92B",
"2X c #4AA42B",
"3X c #54AC26",
"4X c #5AAC24",
"5X c #52A929",
"6X c #42A331",
"7X c #53A331",
"8X c #64A824",
"9X c #73AC23",
"0X c #7DAA22",
"qX c #09834B",
"wX c #158A44",
"eX c #118B4B",
"rX c #198943",
"tX c #078852",
"yX c #1C9247",
"uX c #279541",
"iX c #2E9545",
"pX c #618D6C",
"aX c #50934E",
"sX c #94842B",
"dX c #968824",
"fX c #9E9429",
"gX c #91822A",
"hX c #A19928",
"jX c #AD863E",
"kX c #83A225",
"lX c #AB964A",
"zX c #BBA147",
"xX c #CDB066",
"cX c #D1AE52",
"vX c #D3C179",
"bX c #938C8C",
"nX c #A8958D",
"mX c #B9A69F",
/* pixels */
"                                                                                ",
"                      }.{.    D.mXD.` ~ G T.T.u.I.l.  u.u.                      ",
"    j.Q./.~ D.        g.nX'.E.j.{.{.U.Y.C H a.sXsXI.H T.T.G H                   ",
"    I.Q.(./.~.`         ! (.(.' V ~ /.U.d.X.X.i.hXT.T.v.f.t. .V 2               ",
"  I /.`.`./.^ 3         Z z.Q n 9 Z m.` X.s +.k.hXgXf.>XkX&X;X} +               ",
"  C m.(.(.(.x.        !.T.X.h e q #.Q s.{ w ;.W.Q.S -.5X&X%X%X#Xp o             ",
"  ] ).~.(.`./.^     u.sXfX7XC.O..X#XT <.5.i j E.a. .-X8X3X6X1XyXV.w.w.          ",
"  _ ~.m./.(./.'     r.v.<XiXtXiX8.7.j 0 b m z R.g.e.0X*X3XtXqXqXqX3X1X0.        ",
"  V I L x.^.~.~.(   ..,X,X8.>.aXpX-. Xh * c s.n. .:.@X3X+XC.2. XqXoX+XC.%.      ",
"    @ N ~ ~ ( m.P     $.h ;.} } A.#XXX%.[ ,.W.k.* u %.9.>..X0X&X1XtX5.0.&.{     ",
"      2 P I N N ,       +.,.F.b.:X;X;.y q s.d.s.$.@.s w i OX9X&X1XB.&.1XoX%.    ",
"      3 U M.B +         v $.,X-Xw.{ w q z m h X.rXqX@.$ & 3.wXoX0.%.o.1XwX[ +.  ",
"      8 U U P >           w w +.p % $ * l { OXkX3XeX=.% o w @.@.[ w 4.eXN.w w   ",
"        3 P M.N           @.0.s i u % o q 3.tXiXyXN.[ w w . q q % % [ *.g % &   ",
"          / M.,           ;.7Xq.s %.g q w [ 5.>.[ [ [ y w . . . . 7 ..x a * $   ",
"          V / V             1.7.w q t { w w w t w y y y w $ . . # x.zX`.M.6 $   ",
"          4 ~ R -         z e.o.w % w w u w w q w q w t % . . . 7 '.vX).) E     ",
"          ,.m s.OX1.h.lXjXR.9X7X>.. # : 6 W M S.6 a e $ X + + . 6 lXxX' R r     ",
"          -X2.OXw.2.v.xXcXQ.e.B.>.o E Q L.K.K.[.[.S.! Q _ L @ & } n.g.Y n       ",
"          o.8.#.f #.x U.(.~.M d q . 7 V Q K.bXG.J.1 J Y R < h -X4X9XoX#.O       ",
"          O..Xe o s r ~ ^ M.6 $ o X D i.E H.J.W F i.p.E.x.9 .X2X8X-XoX7.o       ",
"            1.h + w = A r.k = $ $ V U.Q.i.S.J.E R.fXx.U.x.< ;.-X8X2.|.=.o       ",
"            v c 2 X             = T Y c.gXS n D sXQ.Y 1 6 O = :.1.w.0.+.. .     ",
"              8 8             1..X8.c x.j.T.T.dXl.' - w 5.>.y q q h s & . .     ",
"                            w.0X*X3XoXb 5 U.Q.Q./.Z @.6.uXqXB.+.. . o . . .     ",
"                          q.8X*X%X%X+X5.e Y ) ' L r C.6X6X2X@XN.% . . .         ",
"                          4.$X1X2X+XB.@.% + 3 N 2 w 0.8X%X3X@XV.t . +           ",
"                        8.wX6.N.tXV.3.{ q . . @ + $ %.#X2XOX6.*.q O >           ",
"                        7.wX*.%.N.6.*.s o .       o t [ XX6X6.d q 5 3           ",
"                        h #.* w d { r 5 < .           * &.7.3.w a R < ,         ",
"                        9 c.A 9 Z n.h.4 2 .           ! n * % a n.sX5 >         ",
"                        R W.] ~ A y.V N < >           L I.D D T.T.R.5 2 >       ",
"                          V   + + @ B ) ' B             l.A y.y.< 3 < C 7 %     ",
"                                  > V ) S.n O                 X + > 2 8 j y     ",
"                                  u b $.:.*.y                   O = = O % y     ",
"                              %.&.6.Z.tXN.N.[ %                 s *.3.[ =.d q   ",
"                            3.7.rXB.Z.V.@.d d %               o.1.2.qX7.0.[ o   ",
"                        . . * p f f p u . o $ . . . . . . . g |.&.oX6.q.q.i . . ",
"                        . . . . . . . . . . . . . . . . . . o ; o u & u u o . . "
};
