/* XPM */
static char * awesome_player_xpm[] = {
"40 40 229 2",
"  	c None",
". 	c #BB7649",
"+ 	c #B97944",
"@ 	c #B27B5B",
"# 	c #B3754C",
"$ 	c #B37B4D",
"% 	c #BA845A",
"& 	c #BA7B52",
"* 	c #BB7A4D",
"= 	c #AD744B",
"- 	c #B78568",
"; 	c #AE7B53",
"> 	c #AA7B59",
", 	c #A88755",
"' 	c #B47552",
") 	c #B37B53",
"! 	c #95572E",
"~ 	c #A66D48",
"{ 	c #BCA578",
"] 	c #B87C62",
"^ 	c #BC7453",
"/ 	c #A57C4B",
"( 	c #AC7554",
"_ 	c #C17A53",
": 	c #B1916C",
"< 	c #C2BFAE",
"[ 	c #BC7C5B",
"} 	c #B47443",
"| 	c #B38254",
"1 	c #BB8A5E",
"2 	c #BB8D63",
"3 	c #C28765",
"4 	c #CA9A6D",
"5 	c #CB966D",
"6 	c #BD9167",
"7 	c #A87745",
"8 	c #BA8154",
"9 	c #C99676",
"0 	c #B4753E",
"a 	c #B68A5D",
"b 	c #D3A97D",
"c 	c #D5AB83",
"d 	c #D9B289",
"e 	c #D1A375",
"f 	c #BC926C",
"g 	c #AD825A",
"h 	c #B4845B",
"i 	c #CA9C73",
"j 	c #C4996E",
"k 	c #C2946A",
"l 	c #B48A60",
"m 	c #BB8462",
"n 	c #B8844D",
"o 	c #A98667",
"p 	c #C69B79",
"q 	c #D2A57B",
"r 	c #C99766",
"s 	c #A27E63",
"t 	c #B66D52",
"u 	c #C39265",
"v 	c #C2975A",
"w 	c #C28858",
"x 	c #AC9061",
"y 	c #CDA272",
"z 	c #C79B73",
"A 	c #BD6F49",
"B 	c #AF6F54",
"C 	c #A78647",
"D 	c #CEA37B",
"E 	c #C6A683",
"F 	c #977858",
"G 	c #946E55",
"H 	c #A67656",
"I 	c #FFFCCF",
"J 	c #9C7450",
"K 	c #B4947A",
"L 	c #D6B9A3",
"M 	c #877047",
"N 	c #46FDBD",
"O 	c #E2BB94",
"P 	c #E8C59C",
"Q 	c #ECCBA5",
"R 	c #F0D4AC",
"S 	c #F3D6B3",
"T 	c #DBCAB0",
"U 	c #E5CDB5",
"V 	c #76584A",
"W 	c #915E3F",
"X 	c #C1A47E",
"Y 	c #E7C9A9",
"Z 	c #F3DAB4",
"` 	c #EBD4B3",
" .	c #E9D7AA",
"..	c #D8B898",
"+.	c #AC7B4D",
"@.	c #C9B296",
"#.	c #9E7246",
"$.	c #956946",
"%.	c #7B5539",
"&.	c #F3DBBB",
"*.	c #ECD8BA",
"=.	c #ECDAB6",
"-.	c #DAC7A9",
";.	c #88755A",
">.	c #7A644C",
",.	c #947866",
"'.	c #835B47",
").	c #9C8E73",
"!.	c #FAD9B5",
"~.	c #F0CFC1",
"{.	c #A89277",
"].	c #533E3A",
"^.	c #4A342C",
"/.	c #B59C7A",
"(.	c #886749",
"_.	c #956744",
":.	c #FDFEFC",
"<.	c #C17E49",
"[.	c #6B5337",
"}.	c #6C5C54",
"|.	c #463636",
"1.	c #B1998E",
"2.	c #B9A389",
"3.	c #543B34",
"4.	c #4B3631",
"5.	c #EECED1",
"6.	c #9B6B4E",
"7.	c #563B22",
"8.	c #654B42",
"9.	c #B79888",
"0.	c #DABBC3",
"a.	c #4D3A2D",
"b.	c #523633",
"c.	c #6E6057",
"d.	c #A38775",
"e.	c #634A2D",
"f.	c #462715",
"g.	c #826153",
"h.	c #79706D",
"i.	c #513B2D",
"j.	c #65473B",
"k.	c #47392C",
"l.	c #D8C59A",
"m.	c #7A5B56",
"n.	c #624F49",
"o.	c #5C4943",
"p.	c #553425",
"q.	c #5A3D35",
"r.	c #725D58",
"s.	c #482C25",
"t.	c #5C4233",
"u.	c #754D43",
"v.	c #5B3330",
"w.	c #57422B",
"x.	c #6A5954",
"y.	c #6A574C",
"z.	c #4D3D3A",
"A.	c #52352D",
"B.	c #4D4647",
"C.	c #463C35",
"D.	c #855A3B",
"E.	c #956A3A",
"F.	c #5D443C",
"G.	c #652725",
"H.	c #6B321C",
"I.	c #71332C",
"J.	c #6C5246",
"K.	c #64534C",
"L.	c #73615B",
"M.	c #5C4A32",
"N.	c #2C2125",
"O.	c #5B4641",
"P.	c #613836",
"Q.	c #69372B",
"R.	c #7A2B29",
"S.	c #4C3B34",
"T.	c #534135",
"U.	c #342428",
"V.	c #5B2B24",
"W.	c #713232",
"X.	c #7F512F",
"Y.	c #661F1D",
"Z.	c #594A47",
"`.	c #53423B",
" +	c #5E4A3D",
".+	c #382719",
"++	c #938787",
"@+	c #5B2A28",
"#+	c #764938",
"$+	c #68261B",
"%+	c #702623",
"&+	c #725D55",
"*+	c #5C342D",
"=+	c #5E271E",
"-+	c #4D423C",
";+	c #753123",
">+	c #5F1D27",
",+	c #742C24",
"'+	c #662A22",
")+	c #591610",
"!+	c #7A4828",
"~+	c #664844",
"{+	c #B79558",
"]+	c #BBA255",
"^+	c #BEA364",
"/+	c #A99050",
"(+	c #4E4035",
"_+	c #473526",
":+	c #0A0101",
"<+	c #C7A35A",
"[+	c #B49549",
"}+	c #856658",
"|+	c #B9A69B",
"1+	c #BC9B5A",
"2+	c #B88E54",
"3+	c #AB9147",
"4+	c #A4783F",
"5+	c #AC924C",
"6+	c #8A6543",
"7+	c #562F30",
"8+	c #9A7549",
"9+	c #15000B",
"0+	c #5D5645",
"a+	c #4D3744",
"b+	c #5C5131",
"c+	c #9C8248",
"d+	c #9D8152",
"e+	c #887267",
"f+	c #000516",
"                      . . + @ # $ % & # $ * # & = -                             ",
"                      ; ; * > , ' ) # ! ~ # & = $ & # { ]                       ",
"                      ^ @ ; / & = ' ' ) % & ) ) ' ( _ : ] <                     ",
"                  [ ' } | # * 1 2 3 1 4 5 6 | | + + & 7 [ 8 [ *                 ",
"                9 0 $ + ' & $ a b c d b b e f a ] > ( & ( 7 ' $                 ",
"                > * } ) g h % f i c d b j k 6 h g l $ m n @ & # o               ",
"              - @ . ^ a g : j p q q j i l 6 h | * 1 r f 6 , * ' # s             ",
"              t # ) g g u 5 v w e q q i 2 % % % 2 x i y i r ^ ) . g             ",
"            [ * _ # @ 2 q j | 6 4 4 z a h u a 1 5 2 6 q e r 8 $ ) =             ",
"        k A 7 B ' % h a i k ) z 1 2 j j i k 2 2 i k z q d 4 1 ) ^ [             ",
"        ^ B n ' ; C | a 5 k h l a i D i 6 a j 6 e i c E E - % % g B             ",
"        $ # 0 & ; | | 1 1 | | l g 6 4 4 | 6 5 i y D f s F G H ' % I             ",
"        @ ) = ^ $ 1 ; ; 2 | 2 c c 4 1 % 1 h h i z h J K L L M ; ( (             ",
"        & 0 @ N [ ( g i O P Q R S P b a O O 2 1 f f f { T U V = ( g             ",
"          3 7 _ ( W X Y S S Z `  .S Q ..U Y D +.r h h X T @.W +.#.'             ",
"          ; $ $.H %.E  .&.*.` &.=.Z S -.;.>.: b 3 ) 4 R -.,.$.) $ )             ",
"          * 0 @ ( '.).F Q !.S ~.S S =.{.].^.;.Q v ^ p /.(._.g +.' ' :.          ",
"          @ <.( > [.}.|.1. . . .Z `  .2.3.4.,.5...3 | F g ) +._ } _ :.          ",
"          H ) > 6.7.>.8.{.&.T @.E S &. .9.1.0.5...6 @ 1 | > @ # $ # :.          ",
"            e a.b.4.c.2.Y &...,.2.&.S S *.U @.d.F +.8 | G e.f.g.H H :.          ",
"              h.i.j.k.>./.l. .l.` Y L 9.F >.g.J g ; ; 6.m.n.o.a.9.p.            ",
"                a.q.r.s.t.V V ;.V %.u.v.p.w.u._.6.%.G u.r.x.y.j.z.A.B.          ",
"                  C.^.7.o W B D.v.#.E.v.F.3.G.H.I.t.J.F.K.x.L.8.4.M.N.C.        ",
"                    O.a.j.P.g.m.Q.v C %.V b.v.R.R.s.S.3.k.T.F.n.[.e.U.S.        ",
"                      V.W.q.9.E X.V (.l...'.Y.R.R.V.S.o.Z.o.`.b.J. +.+S.++      ",
"                    p.'.I.@+D.'.#+'.j.,.K '.$+%+R.G.3.K.r.&+K.K.`.3.a.a.z.      ",
"                  *+=+=+V.Y.Y.%+#+t.-+O.P.;+$+%+R.V.b.o.}.L.}.}.x.K.a.q.`.      ",
"                  >+$+>+@+%+H.,+X.e.S.Z.q.G.,+R.'+q.].`.n.c.c.&+L.K.^.8.C.      ",
"                z.V.)+V.W.M E.~ 7 !+$+P.~+F.s.v.p.3.-+S.o.c.&+&+r.K.3.A.`.      ",
"        |.].`.C.^.>.X.6.{+]+^+u /+W ;+'+*+j.~+~+j.(+C.|.o.}.}.&+}.o.k.3.3.      ",
"        ].]._+.+:+i.M n <+<+{+[+C /+J D.!+%.Q.P.8.`.z.z.O.}.}.r.y.T.a.3.h.      ",
"        4.s.F.}+).|+..{+1+1+2+3+C 4+2+{+/+1+/ H.*+^.].].F.}.x.x.J.T.a.|.        ",
"        -+L.t.E *.` P c , 5+3+C / 3+{+^+]+1+6+A.7+b.z.].T.o.`.3.q.A.^.C.        ",
"        C._+k.;.X /.d.,.V 8+/ ~ / 3+<+6 [+E.q.q.^.S.S.].k._+S.S._+a.].B.        ",
"          -+.+t.o.i.s.U.9+[+7 6./ [+2+2+C 6.i.4._+3.C.4.a.3.A.S.S.S.`.          ",
"          -+_+F.0+w.a+a.w.F J +.#., 4+(.K /.`.o.i.a.S.b.b.A.3.S.-+              ",
"            K.L.c.b+        c+E.6.d+#+w.y.@.;.s.i.F.z.z.z.e+                    ",
"                  f+          C ,   o.:+T.{.).s.a.                              ",
"                                    S.(+k.J.b+:+-+                              ",
"                                    k._+F.}+y.U.4.                              "};
