/* XPM */
static char * collectible_1_xpm[] = {
"40 40 222 2",
"  	c None",
". 	c #D1E2EA",
"+ 	c #BBD5E2",
"@ 	c #9FCEE3",
"# 	c #D9E5EC",
"$ 	c #71ADCD",
"% 	c #BADEED",
"& 	c #DFF8FE",
"* 	c #D9F1F9",
"= 	c #DAEEF4",
"- 	c #87B8D2",
"; 	c #63A7CA",
"> 	c #9AD4EC",
", 	c #B8E9FA",
"' 	c #B8E9F9",
") 	c #A9E4F8",
"! 	c #A2DBF0",
"~ 	c #D2E2E9",
"{ 	c #A0C6DA",
"] 	c #549CC4",
"^ 	c #64AACE",
"/ 	c #94D4EE",
"( 	c #A4E1F7",
"_ 	c #A5E2F7",
": 	c #9CDBF2",
"< 	c #A0CCE1",
"[ 	c #C1D7E1",
"} 	c #5FA5C9",
"| 	c #579EC5",
"1 	c #66ADD1",
"2 	c #82C7E6",
"3 	c #9DDCF5",
"4 	c #9FDEF6",
"5 	c #99D6EE",
"6 	c #C4E1EB",
"7 	c #D8E0E4",
"8 	c #71B1CE",
"9 	c #589FC5",
"0 	c #59A1C7",
"a 	c #63B2D7",
"b 	c #7FC3E3",
"c 	c #9EDCF4",
"d 	c #A3DEF5",
"e 	c #B2E0F1",
"f 	c #DFECF1",
"g 	c #90C2D4",
"h 	c #5CA4C8",
"i 	c #549AC1",
"j 	c #62A9CB",
"k 	c #79BDDA",
"l 	c #ABD8ED",
"m 	c #CEEDFB",
"n 	c #CEEDFA",
"o 	c #CBE9F4",
"p 	c #B7D2DB",
"q 	c #69ABCD",
"r 	c #5399C0",
"s 	c #5397BE",
"t 	c #71B3D0",
"u 	c #8FCCE2",
"v 	c #BFE2F3",
"w 	c #D2EEFB",
"x 	c #D7EFF5",
"y 	c #D6E0E5",
"z 	c #68A6C8",
"A 	c #4D95BD",
"B 	c #5397BD",
"C 	c #5496BC",
"D 	c #81BFD7",
"E 	c #94CEE5",
"F 	c #C2E4F5",
"G 	c #CEECFA",
"H 	c #CDF0FA",
"I 	c #B9CEDA",
"J 	c #5798BE",
"K 	c #4991BA",
"L 	c #5093B9",
"M 	c #5A9CC1",
"N 	c #89C5DC",
"O 	c #96CEE6",
"P 	c #C0E6F7",
"Q 	c #C5EBF9",
"R 	c #CFF3F9",
"S 	c #CEDBE3",
"T 	c #659FC1",
"U 	c #458DB6",
"V 	c #5295BC",
"W 	c #5E9FC3",
"X 	c #8AC6DD",
"Y 	c #94CEE6",
"Z 	c #B6E5F7",
"` 	c #BCEBF9",
" .	c #D6F3F7",
"..	c #DEE5EA",
"+.	c #76A9C6",
"@.	c #4790BA",
"#.	c #5093BA",
"$.	c #62A0C1",
"%.	c #86C5DD",
"&.	c #7AC2E4",
"*.	c #86CDF0",
"=.	c #9EDAF4",
"-.	c #DDF0F3",
";.	c #89B3CC",
">.	c #488FB8",
",.	c #4C8FB6",
"'.	c #649FBF",
").	c #74BAD9",
"!.	c #5FB3E2",
"~.	c #6EBFED",
"{.	c #A9DEF4",
"].	c #9DBED1",
"^.	c #4D92B9",
"/.	c #4788AF",
"(.	c #5F98BA",
"_.	c #64B4DA",
":.	c #60B4E4",
"<.	c #77C4EE",
"[.	c #BDE3F3",
"}.	c #B0CAD7",
"|.	c #5498BB",
"1.	c #407CA4",
"2.	c #5895BB",
"3.	c #56ABD9",
"4.	c #61B4E5",
"5.	c #79C5EC",
"6.	c #C6E2ED",
"7.	c #B9D1D9",
"8.	c #B8D0D8",
"9.	c #BFD3DB",
"0.	c #5C9BBA",
"a.	c #3C78A0",
"b.	c #498DB9",
"c.	c #469BD2",
"d.	c #61B4E7",
"e.	c #7FC4E8",
"f.	c #C9DEE7",
"g.	c #4193AC",
"h.	c #277791",
"i.	c #8FAFB9",
"j.	c #CAD8DD",
"k.	c #669FBA",
"l.	c #38759D",
"m.	c #3E86B5",
"n.	c #80BBC4",
"o.	c #9BD1D2",
"p.	c #7EB8B3",
"q.	c #157691",
"r.	c #266A82",
"s.	c #256376",
"t.	c #C9D5D9",
"u.	c #D4DBDE",
"v.	c #72A3BA",
"w.	c #3A779C",
"x.	c #BECF4F",
"y.	c #FCF139",
"z.	c #75A572",
"A.	c #05546A",
"B.	c #59828C",
"C.	c #C3D0D5",
"D.	c #DDDFE1",
"E.	c #80A8BB",
"F.	c #A5B949",
"G.	c #A8BC66",
"H.	c #4E8493",
"I.	c #6D6536",
"J.	c #DCBB76",
"K.	c #DFE7EA",
"L.	c #73A6B6",
"M.	c #2F706F",
"N.	c #1A484F",
"O.	c #593E26",
"P.	c #AA5904",
"Q.	c #D18B14",
"R.	c #EBD4A1",
"S.	c #4D8EA3",
"T.	c #1D6D86",
"U.	c #043E4E",
"V.	c #363933",
"W.	c #652200",
"X.	c #843600",
"Y.	c #B36201",
"Z.	c #D89D2F",
"`.	c #EBD9B6",
" +	c #DEE2E3",
".+	c #3E7283",
"++	c #225A6D",
"@+	c #325359",
"#+	c #B5AFAA",
"$+	c #8A5A3F",
"%+	c #6C2500",
"&+	c #8C3D00",
"*+	c #B36303",
"=+	c #D6992D",
"-+	c #EADABA",
";+	c #9FB1B5",
">+	c #184048",
",+	c #859194",
"'+	c #D5CDC8",
")+	c #864E2C",
"!+	c #692400",
"~+	c #843800",
"{+	c #B26000",
"]+	c #B3914F",
"^+	c #D2D7DA",
"/+	c #BFC5C6",
"(+	c #DBDCDD",
"_+	c #C6B9B1",
":+	c #7E401A",
"<+	c #662400",
"[+	c #774925",
"}+	c #8DA19D",
"|+	c #BFC7CB",
"1+	c #BCAFA6",
"2+	c #4D4A47",
"3+	c #3D657B",
"4+	c #84AEC1",
"5+	c #C9CDCE",
"6+	c #A9B1B6",
"7+	c #6F818B",
"8+	c #97A0A6",
"9+	c #DBDCDC",
"                                                                                ",
"                                                                                ",
"                                                                                ",
"                                                                                ",
"                                                                                ",
"                                                                                ",
"                  .                                                             ",
"                  + @                                                           ",
"                  # $ % &   * =                                                 ",
"                    - ; > , ' ) ! ~                                             ",
"                    { ] ^ / ( _ : <                                             ",
"                    [ } | 1 2 3 4 5 6                                           ",
"                    7 8 9 0 a b c d e f                                         ",
"                      g h i j k l m n o                                         ",
"                      p q r s t u v w n x                                       ",
"                      y z A B C D E F G H                                       ",
"                        I J K L M N O P Q R                                     ",
"                          S T U V W X Y Z `  .                                  ",
"                            ..+.@.#.$.%.&.*.=.-.                                ",
"                                ;.>.,.'.).!.~.{.                                ",
"                                  ].^./.(._.:.<.[.                              ",
"                                    }.|.1.2.3.4.5.6.  7.8.                      ",
"                                      9.0.a.b.c.d.e.f.g.h.i.                    ",
"                                        j.k.l.m.n.o.p.q.r.s.t.                  ",
"                                          u.v.w.x.y.z.A.B.C.                    ",
"                                            D.E.F.G.H.I.J.                      ",
"                                            K.L.M.N.O.P.Q.R.                    ",
"                                            S.T.U.V.W.X.Y.Z.`.                  ",
"                                           +.+++@+#+$+%+&+*+=+-+                ",
"                                            ;+>+,+  '+)+!+~+{+]+^+              ",
"                                              /+(+    _+:+<+[+}+|+              ",
"                                                        1+2+3+4+5+              ",
"                                                          6+7+8+9+              ",
"                                                                                ",
"                                                                                ",
"                                                                                ",
"                                                                                ",
"                                                                                ",
"                                                                                ",
"                                                                                "};
