/* XPM */
static char * ground_xpm[] = {
"40 40 1030 2",
"  	c #3B3137",
". 	c #65515C",
"+ 	c #64505C",
"@ 	c #604D59",
"# 	c #584853",
"$ 	c #3B303A",
"% 	c #51495A",
"& 	c #4F4759",
"* 	c #4E4758",
"= 	c #4F4859",
"- 	c #453C4D",
"; 	c #342B37",
"> 	c #403846",
", 	c #463E4E",
"' 	c #4A4254",
") 	c #4C4556",
"! 	c #4D4657",
"~ 	c #504659",
"{ 	c #514659",
"] 	c #4F4659",
"^ 	c #504558",
"/ 	c #4F4557",
"( 	c #4B4355",
"_ 	c #453E4E",
": 	c #352F3A",
"< 	c #3E3D3D",
"[ 	c #3D3D3D",
"} 	c #3E3E3E",
"| 	c #3B3B3B",
"1 	c #493E48",
"2 	c #61515C",
"3 	c #62525D",
"4 	c #64535E",
"5 	c #61505A",
"6 	c #2D272B",
"7 	c #68535F",
"8 	c #735C69",
"9 	c #6F5966",
"0 	c #6A5562",
"a 	c #62505C",
"b 	c #463944",
"c 	c #5A5165",
"d 	c #5A5064",
"e 	c #584F63",
"f 	c #574E62",
"g 	c #564F62",
"h 	c #544E62",
"i 	c #4D4255",
"j 	c #392D3C",
"k 	c #463E4D",
"l 	c #4B4455",
"m 	c #51485D",
"n 	c #534B5F",
"o 	c #554D60",
"p 	c #564D61",
"q 	c #594D62",
"r 	c #5A4D62",
"s 	c #594D61",
"t 	c #584C61",
"u 	c #574C60",
"v 	c #554B5F",
"w 	c #52495B",
"x 	c #4B4354",
"y 	c #352D39",
"z 	c #444544",
"A 	c #434343",
"B 	c #444443",
"C 	c #403F3E",
"D 	c #534650",
"E 	c #6B5965",
"F 	c #6E5B67",
"G 	c #705C68",
"H 	c #725C68",
"I 	c #624F5A",
"J 	c #6C5663",
"K 	c #715A67",
"L 	c #443742",
"M 	c #595064",
"N 	c #544F62",
"O 	c #585166",
"P 	c #565065",
"Q 	c #362A3A",
"R 	c #433E4D",
"S 	c #494557",
"T 	c #50485C",
"U 	c #504C5E",
"V 	c #524D5F",
"W 	c #554C60",
"X 	c #584C60",
"Y 	c #574B5F",
"Z 	c #564B5D",
"` 	c #56495E",
" .	c #54495B",
"..	c #504556",
"+.	c #4A4151",
"@.	c #352A38",
"#.	c #474643",
"$.	c #464642",
"%.	c #3E393C",
"&.	c #594954",
"*.	c #6C5865",
"=.	c #715C68",
"-.	c #725B68",
";.	c #695460",
">.	c #715B68",
",.	c #705A67",
"'.	c #6B5764",
").	c #63515E",
"!.	c #5A5166",
"~.	c #584E63",
"{.	c #594F63",
"].	c #5B5468",
"^.	c #5E556A",
"/.	c #5D5367",
"(.	c #483C4F",
"_.	c #342839",
":.	c #433B4B",
"<.	c #494457",
"[.	c #4C475A",
"}.	c #50495C",
"|.	c #514A5D",
"1.	c #534A5D",
"2.	c #53495B",
"3.	c #524758",
"4.	c #514657",
"5.	c #504455",
"6.	c #4E4252",
"7.	c #4A3E4E",
"8.	c #483E4D",
"9.	c #3F3443",
"0.	c #372B39",
"a.	c #484743",
"b.	c #4A4945",
"c.	c #434041",
"d.	c #3B323A",
"e.	c #5C4A56",
"f.	c #6B5663",
"g.	c #614956",
"h.	c #5B4453",
"i.	c #5E4754",
"j.	c #5E4855",
"k.	c #594552",
"l.	c #42323F",
"m.	c #574D60",
"n.	c #4D4253",
"o.	c #463A4C",
"p.	c #403345",
"q.	c #423548",
"r.	c #45384B",
"s.	c #3F3143",
"t.	c #3B2D3E",
"u.	c #302332",
"v.	c #3A303E",
"w.	c #3F3545",
"x.	c #403646",
"y.	c #413647",
"z.	c #423749",
"A.	c #44394A",
"B.	c #413646",
"C.	c #403343",
"D.	c #3F3242",
"E.	c #3A2D3D",
"F.	c #362837",
"G.	c #352836",
"H.	c #342736",
"I.	c #332635",
"J.	c #322633",
"K.	c #423C3E",
"L.	c #3E363B",
"M.	c #3E343A",
"N.	c #382D37",
"O.	c #53434D",
"P.	c #574552",
"Q.	c #513E4B",
"R.	c #513D4A",
"S.	c #5A4350",
"T.	c #58424E",
"U.	c #53445B",
"V.	c #52455C",
"W.	c #52465D",
"X.	c #493D4E",
"Y.	c #463A4A",
"Z.	c #433949",
"`.	c #3F3546",
" +	c #3D3242",
".+	c #3C3141",
"++	c #3A2E3E",
"@+	c #423644",
"#+	c #483C4B",
"$+	c #4B3E4E",
"%+	c #594C5B",
"&+	c #74667A",
"*+	c #887A8F",
"=+	c #8C7E94",
"-+	c #8A7C93",
";+	c #8D7F96",
">+	c #8A7B92",
",+	c #86748A",
"'+	c #726073",
")+	c #726782",
"!+	c #7C7294",
"~+	c #6F6380",
"{+	c #665A73",
"]+	c #736784",
"^+	c #6F627B",
"/+	c #685B72",
"(+	c #61546C",
"_+	c #5F556C",
":+	c #63586F",
"<+	c #665B74",
"[+	c #685F79",
"}+	c #6C627C",
"|+	c #6A6078",
"1+	c #63576E",
"2+	c #4A3E4F",
"3+	c #3D3042",
"4+	c #463C4D",
"5+	c #53485B",
"6+	c #544A5F",
"7+	c #544B5F",
"8+	c #50475B",
"9+	c #50475A",
"0+	c #4E4556",
"a+	c #4C4354",
"b+	c #484050",
"c+	c #413748",
"d+	c #544753",
"e+	c #5F515E",
"f+	c #6A5C6C",
"g+	c #79697C",
"h+	c #827286",
"i+	c #8C7C92",
"j+	c #897A8E",
"k+	c #88758B",
"l+	c #8C7B91",
"m+	c #8D7E93",
"n+	c #786778",
"o+	c #574855",
"p+	c #554A5D",
"q+	c #5C4F64",
"r+	c #5D4F63",
"s+	c #615369",
"t+	c #6B5D76",
"u+	c #62546A",
"v+	c #5D4F64",
"w+	c #5B4E63",
"x+	c #5A4E62",
"y+	c #5C4E63",
"z+	c #56495D",
"A+	c #463E4C",
"B+	c #52495D",
"C+	c #564C60",
"D+	c #54495E",
"E+	c #52485D",
"F+	c #4C4559",
"G+	c #484052",
"H+	c #594C59",
"I+	c #625361",
"J+	c #635561",
"K+	c #655664",
"L+	c #6C5C68",
"M+	c #6E5C6A",
"N+	c #6D5967",
"O+	c #705C6A",
"P+	c #6C5B67",
"Q+	c #695B66",
"R+	c #685863",
"S+	c #4E3F4C",
"T+	c #53475A",
"U+	c #5F5166",
"V+	c #5B4D62",
"W+	c #5B4F64",
"X+	c #594E63",
"Y+	c #584D62",
"Z+	c #5A4F64",
"`+	c #574A5D",
" @	c #56495C",
".@	c #403444",
"+@	c #49404F",
"@@	c #574D62",
"#@	c #5A4F63",
"$@	c #574C61",
"%@	c #504B5E",
"&@	c #4A4354",
"*@	c #5C4F5C",
"=@	c #665B68",
"-@	c #675C6A",
";@	c #675B68",
">@	c #695B67",
",@	c #6B5A67",
"'@	c #6E5C68",
")@	c #6D5B67",
"!@	c #6A5864",
"~@	c #4D3D4A",
"{@	c #584B5E",
"]@	c #584B60",
"^@	c #5D5065",
"/@	c #584E62",
"(@	c #554D61",
"_@	c #575064",
":@	c #53485C",
"<@	c #433848",
"[@	c #4A404F",
"}@	c #53495D",
"|@	c #5D4F5C",
"1@	c #675C69",
"2@	c #685C6A",
"3@	c #6D5F6D",
"4@	c #6B5B69",
"5@	c #6D5B68",
"6@	c #6B5865",
"7@	c #483945",
"8@	c #584C5F",
"9@	c #585065",
"0@	c #585267",
"a@	c #575467",
"b@	c #585064",
"c@	c #4D4254",
"d@	c #534A5E",
"e@	c #594C61",
"f@	c #473D4F",
"g@	c #60525F",
"h@	c #675C68",
"i@	c #685B6A",
"j@	c #6B5D6B",
"k@	c #6B5D6C",
"l@	c #6E5C69",
"m@	c #6A5764",
"n@	c #3E2E3C",
"o@	c #584D5F",
"p@	c #5E5267",
"q@	c #594F64",
"r@	c #595164",
"s@	c #5A5265",
"t@	c #595466",
"u@	c #5A5467",
"v@	c #5A5668",
"w@	c #585466",
"x@	c #524A5D",
"y@	c #4A4051",
"z@	c #45394A",
"A@	c #433A4A",
"B@	c #494052",
"C@	c #584B5F",
"D@	c #554B60",
"E@	c #544A5D",
"F@	c #52475C",
"G@	c #3C2F40",
"H@	c #60515D",
"I@	c #685A67",
"J@	c #685B67",
"K@	c #675A67",
"L@	c #6A5C69",
"M@	c #615361",
"N@	c #645462",
"O@	c #695866",
"P@	c #6F5D6A",
"Q@	c #5E4A58",
"R@	c #453543",
"S@	c #52485A",
"T@	c #575164",
"U@	c #5C5367",
"V@	c #5D5568",
"W@	c #625A6E",
"X@	c #665F72",
"Y@	c #60586B",
"Z@	c #453A4A",
"`@	c #463C4C",
" #	c #433849",
".#	c #3E3142",
"+#	c #453C4B",
"@#	c #4A4154",
"##	c #4C4353",
"$#	c #52465B",
"%#	c #4E4253",
"&#	c #52485B",
"*#	c #4D4353",
"=#	c #453A4B",
"-#	c #392C3C",
";#	c #322432",
">#	c #4E3E4B",
",#	c #564453",
"'#	c #544250",
")#	c #524450",
"!#	c #3D2F3C",
"~#	c #362735",
"{#	c #372736",
"]#	c #3E2C3B",
"^#	c #523F4E",
"/#	c #564050",
"(#	c #4D3443",
"_#	c #422E3D",
":#	c #473B4D",
"<#	c #46384A",
"[#	c #493B4C",
"}#	c #4B3D4F",
"|#	c #4D4256",
"1#	c #4F4253",
"2#	c #504254",
"3#	c #483A4C",
"4#	c #413244",
"5#	c #433546",
"6#	c #443646",
"7#	c #433645",
"8#	c #413344",
"9#	c #403342",
"0#	c #423948",
"a#	c #777090",
"b#	c #6C6380",
"c#	c #6C617F",
"d#	c #6D627D",
"e#	c #655C74",
"f#	c #685C77",
"g#	c #6D627F",
"h#	c #746A89",
"i#	c #79708B",
"j#	c #7A718D",
"k#	c #7A7392",
"l#	c #7A7291",
"m#	c #766D8B",
"n#	c #786F8F",
"o#	c #776F8F",
"p#	c #68607C",
"q#	c #736B8A",
"r#	c #6E6783",
"s#	c #382C3B",
"t#	c #493D50",
"u#	c #4A3F53",
"v#	c #50455A",
"w#	c #473C50",
"x#	c #42374A",
"y#	c #413749",
"z#	c #43384A",
"A#	c #453A4F",
"B#	c #463B4F",
"C#	c #44394D",
"D#	c #3B2F3F",
"E#	c #635260",
"F#	c #675564",
"G#	c #715E70",
"H#	c #5B4C5C",
"I#	c #43394C",
"J#	c #5A536B",
"K#	c #615A74",
"L#	c #706A87",
"M#	c #756E8C",
"N#	c #6F6884",
"O#	c #61576D",
"P#	c #584D61",
"Q#	c #4E4154",
"R#	c #524457",
"S#	c #61586E",
"T#	c #6E647E",
"U#	c #6A607A",
"V#	c #5A5065",
"W#	c #574E63",
"X#	c #60566D",
"Y#	c #3B3040",
"Z#	c #4E4555",
"`#	c #534A5C",
" $	c #544B60",
".$	c #4E4558",
"+$	c #4D4455",
"@$	c #4A4252",
"#$	c #494051",
"$$	c #483E4F",
"%$	c #3E3140",
"&$	c #74606D",
"*$	c #715D69",
"=$	c #64525F",
"-$	c #514B5F",
";$	c #524E60",
">$	c #534F61",
",$	c #5B556B",
"'$	c #69607B",
")$	c #5F576E",
"!$	c #4F4559",
"~$	c #4C4052",
"{$	c #504355",
"]$	c #574D61",
"^$	c #3A303F",
"/$	c #4F4455",
"($	c #55495D",
"_$	c #51485C",
":$	c #4F4454",
"<$	c #4E4354",
"[$	c #494050",
"}$	c #75606E",
"|$	c #705D69",
"1$	c #6A5866",
"2$	c #4E485A",
"3$	c #564E62",
"4$	c #50485A",
"5$	c #564D60",
"6$	c #594E62",
"7$	c #5D5268",
"8$	c #4B3F51",
"9$	c #4B3F52",
"0$	c #5B4F66",
"a$	c #5A4E63",
"b$	c #382E3D",
"c$	c #4F4354",
"d$	c #564A5D",
"e$	c #4F4658",
"f$	c #4C4252",
"g$	c #4B4051",
"h$	c #3F3342",
"i$	c #75606D",
"j$	c #705D6A",
"k$	c #695664",
"l$	c #514A5C",
"m$	c #52485C",
"n$	c #5C546A",
"o$	c #5D5467",
"p$	c #5B5366",
"q$	c #5B5266",
"r$	c #5B5065",
"s$	c #4E4254",
"t$	c #352938",
"u$	c #483C4D",
"v$	c #53485A",
"w$	c #564A5F",
"x$	c #4F4558",
"y$	c #4B4252",
"z$	c #4D4355",
"A$	c #403443",
"B$	c #73606D",
"C$	c #71616C",
"D$	c #6E5A68",
"E$	c #54404C",
"F$	c #554E62",
"G$	c #51485B",
"H$	c #4C4555",
"I$	c #534D61",
"J$	c #544D60",
"K$	c #484151",
"L$	c #5A5468",
"M$	c #5B5769",
"N$	c #5B5467",
"O$	c #595265",
"P$	c #595467",
"Q$	c #5B5367",
"R$	c #4F4255",
"S$	c #372B3A",
"T$	c #52455A",
"U$	c #55485D",
"V$	c #55495F",
"W$	c #53495E",
"X$	c #51475A",
"Y$	c #51475B",
"Z$	c #4B4253",
"`$	c #403544",
" %	c #736470",
".%	c #71656C",
"+%	c #695863",
"@%	c #594550",
"#%	c #564D62",
"$%	c #5C5267",
"%%	c #493E50",
"&%	c #4A4253",
"*%	c #534E63",
"=%	c #534E61",
"-%	c #473D4E",
";%	c #5B566A",
">%	c #5A5568",
",%	c #5C5669",
"'%	c #585163",
")%	c #4E4459",
"!%	c #52475B",
"~%	c #46374A",
"{%	c #382B3A",
"]%	c #55495E",
"^%	c #56495F",
"/%	c #51475C",
"(%	c #52495C",
"_%	c #544B5D",
":%	c #423748",
"<%	c #73666F",
"[%	c #73666D",
"}%	c #695862",
"|%	c #5D4855",
"1%	c #55485C",
"2%	c #574B60",
"3%	c #443648",
"4%	c #423446",
"5%	c #3B3242",
"6%	c #524B60",
"7%	c #453A4C",
"8%	c #4E4355",
"9%	c #4F465A",
"0%	c #453647",
"a%	c #443546",
"b%	c #443445",
"c%	c #3B2E3D",
"d%	c #362938",
"e%	c #3A2C3A",
"f%	c #3F303F",
"g%	c #302331",
"h%	c #342635",
"i%	c #3A2F3E",
"j%	c #423848",
"k%	c #433948",
"l%	c #3F3445",
"m%	c #372A39",
"n%	c #6A5B65",
"o%	c #706169",
"p%	c #6B5762",
"q%	c #634C59",
"r%	c #4D4152",
"s%	c #473B4C",
"t%	c #392C3B",
"u%	c #3E3041",
"v%	c #403244",
"w%	c #463C4B",
"x%	c #3A323A",
"y%	c #3D353D",
"z%	c #3D383C",
"A%	c #3E383E",
"B%	c #3D363D",
"C%	c #3C373D",
"D%	c #3C353C",
"E%	c #3A313C",
"F%	c #362C37",
"G%	c #554D64",
"H%	c #5B556D",
"I%	c #5E5671",
"J%	c #494054",
"K%	c #7F6F82",
"L%	c #7B697C",
"M%	c #857286",
"N%	c #877387",
"O%	c #877286",
"P%	c #8B7388",
"Q%	c #8A748B",
"R%	c #8E7B91",
"S%	c #8E7990",
"T%	c #89758B",
"U%	c #7D6A7D",
"V%	c #706786",
"W%	c #7C7496",
"X%	c #787091",
"Y%	c #6D6480",
"Z%	c #574B61",
"`%	c #594B63",
" &	c #5D4F65",
".&	c #655872",
"+&	c #675C77",
"@&	c #6B607C",
"#&	c #383039",
"$&	c #362F36",
"%&	c #3F3D3F",
"&&	c #403E40",
"*&	c #413F41",
"=&	c #414041",
"-&	c #403E41",
";&	c #414042",
">&	c #424143",
",&	c #413E41",
"'&	c #3F3C40",
")&	c #362F37",
"!&	c #5D576D",
"~&	c #584F66",
"{&	c #5A5067",
"]&	c #6F5C69",
"^&	c #6F5A66",
"/&	c #725D69",
"(&	c #725C69",
"_&	c #745D6A",
":&	c #735D6A",
"<&	c #75606C",
"[&	c #7A6371",
"}&	c #735E6C",
"|&	c #5B5268",
"1&	c #3C363B",
"2&	c #3C373B",
"3&	c #413F40",
"4&	c #454445",
"5&	c #494949",
"6&	c #484848",
"7&	c #484949",
"8&	c #464848",
"9&	c #454747",
"0&	c #434646",
"a&	c #39343A",
"b&	c #4D4759",
"c&	c #4F455A",
"d&	c #66525F",
"e&	c #735D69",
"f&	c #755F6D",
"g&	c #796473",
"h&	c #483E50",
"i&	c #403A3F",
"j&	c #3B393B",
"k&	c #424041",
"l&	c #474747",
"m&	c #4A4A4A",
"n&	c #4B4B4B",
"o&	c #4A4A4B",
"p&	c #444444",
"q&	c #373238",
"r&	c #4E4456",
"s&	c #67525F",
"t&	c #6E5A66",
"u&	c #745C6A",
"v&	c #735F6D",
"w&	c #463D4F",
"x&	c #5C4D62",
"y&	c #3F383D",
"z&	c #3B393A",
"A&	c #434142",
"B&	c #464545",
"C&	c #494A4A",
"D&	c #464345",
"E&	c #464547",
"F&	c #494848",
"G&	c #3A3339",
"H&	c #554C5F",
"I&	c #705B68",
"J&	c #745C69",
"K&	c #705C69",
"L&	c #6B5866",
"M&	c #463D4E",
"N&	c #50465A",
"O&	c #3C343A",
"P&	c #3A383A",
"Q&	c #413E40",
"R&	c #424142",
"S&	c #474647",
"T&	c #484748",
"U&	c #444244",
"V&	c #454344",
"W&	c #403F40",
"X&	c #352C35",
"Y&	c #514C5F",
"Z&	c #514D60",
"`&	c #352838",
" *	c #705D6B",
".*	c #725E6B",
"+*	c #6F5C68",
"@*	c #6C5B68",
"#*	c #695864",
"$*	c #473C4F",
"%*	c #4E4458",
"&*	c #393037",
"**	c #3C363A",
"=*	c #403B3F",
"-*	c #403B41",
";*	c #3E363D",
">*	c #443E41",
",*	c #413D40",
"'*	c #3F3B3E",
")*	c #362E36",
"!*	c #2D222D",
"~*	c #524C60",
"{*	c #504B5F",
"]*	c #382B3B",
"^*	c #6B5A68",
"/*	c #6F5E6B",
"(*	c #6E5B69",
"_*	c #6D5C68",
":*	c #6C5B69",
"<*	c #493F51",
"[*	c #534659",
"}*	c #4F4355",
"|*	c #4D4053",
"1*	c #55485B",
"2*	c #504658",
"3*	c #372C36",
"4*	c #383138",
"5*	c #30252F",
"6*	c #302530",
"7*	c #2E212D",
"8*	c #2D212C",
"9*	c #2D202C",
"0*	c #2F2530",
"a*	c #312530",
"b*	c #2E222D",
"c*	c #2B202C",
"d*	c #281D2A",
"e*	c #453C4E",
"f*	c #443A4B",
"g*	c #3F3142",
"h*	c #3E2E3F",
"i*	c #584350",
"j*	c #624F5B",
"k*	c #63515D",
"l*	c #65515E",
"m*	c #64515D",
"n*	c #5F505D",
"o*	c #5B4A57",
"p*	c #5D4B59",
"q*	c #5A4856",
"r*	c #4D3848",
"s*	c #463749",
"t*	c #3F3041",
"u*	c #403042",
"v*	c #3F2F40",
"w*	c #463849",
"x*	c #3C2E3E",
"y*	c #2E242E",
"z*	c #2D232C",
"A*	c #847EA1",
"B*	c #837B9D",
"C*	c #817496",
"D*	c #7F7293",
"E*	c #776B87",
"F*	c #5E536A",
"G*	c #494646",
"H*	c #575753",
"I*	c #565954",
"J*	c #555955",
"K*	c #464546",
"L*	c #464445",
"M*	c #403D3F",
"N*	c #3D3A3C",
"O*	c #3E3B3D",
"P*	c #3D393C",
"Q*	c #362C3C",
"R*	c #433A4E",
"S*	c #40374A",
"T*	c #342838",
"U*	c #443C4F",
"V*	c #403647",
"W*	c #413A4A",
"X*	c #4F495F",
"Y*	c #4D4558",
"Z*	c #4D4356",
"`*	c #564C61",
" =	c #594F66",
".=	c #5D536C",
"+=	c #61546D",
"@=	c #554960",
"#=	c #483F51",
"$=	c #82799C",
"%=	c #7D7395",
"&=	c #7E7596",
"*=	c #766F8D",
"==	c #756E8E",
"-=	c #767090",
";=	c #675E77",
">=	c #685D77",
",=	c #695B73",
"'=	c #393439",
")=	c #434243",
"!=	c #444243",
"~=	c #3E383D",
"{=	c #473E51",
"]=	c #453D4F",
"^=	c #372C3C",
"/=	c #504A5D",
"(=	c #4C485A",
"_=	c #4E4659",
":=	c #433748",
"<=	c #837996",
"[=	c #685E77",
"}=	c #564E61",
"|=	c #594C62",
"1=	c #373137",
"2=	c #454343",
"3=	c #413A40",
"4=	c #3A2F3F",
"5=	c #362B3B",
"6=	c #534E62",
"7=	c #524D60",
"8=	c #544E61",
"9=	c #564B5F",
"0=	c #443849",
"a=	c #5C5064",
"b=	c #564F63",
"c=	c #393339",
"d=	c #454444",
"e=	c #423F40",
"f=	c #444344",
"g=	c #444142",
"h=	c #3D3243",
"i=	c #483E4E",
"j=	c #4D4354",
"k=	c #372C3B",
"l=	c #555064",
"m=	c #443748",
"n=	c #62566C",
"o=	c #544C5F",
"p=	c #544F63",
"q=	c #554F63",
"r=	c #554B5E",
"s=	c #3B353B",
"t=	c #424042",
"u=	c #423E42",
"v=	c #484747",
"w=	c #3E3444",
"x=	c #473E4E",
"y=	c #4B4151",
"z=	c #3A3140",
"A=	c #5D546A",
"B=	c #534D60",
"C=	c #5C5065",
"D=	c #544F64",
"E=	c #534D62",
"F=	c #3A3239",
"G=	c #474447",
"H=	c #434143",
"I=	c #474346",
"J=	c #3D3343",
"K=	c #3F3544",
"L=	c #564C5F",
"M=	c #514C60",
"N=	c #4F4B5D",
"O=	c #4A4455",
"P=	c #5B5267",
"Q=	c #554D62",
"R=	c #524C61",
"S=	c #392F37",
"T=	c #463F44",
"U=	c #494548",
"V=	c #484346",
"W=	c #474548",
"X=	c #433F43",
"Y=	c #3E3A3E",
"Z=	c #3D393D",
"`=	c #474445",
" -	c #4D4C4C",
".-	c #444143",
"+-	c #3E373C",
"@-	c #4C4253",
"#-	c #5E5266",
"$-	c #524D62",
"%-	c #4E4A5D",
"&-	c #4B4658",
"*-	c #453F50",
"=-	c #4B4153",
"--	c #544A5E",
";-	c #413446",
">-	c #483D50",
",-	c #423547",
"'-	c #372A3A",
")-	c #2C212E",
"!-	c #332832",
"~-	c #383139",
"{-	c #3B343B",
"]-	c #362C36",
"^-	c #322531",
"/-	c #2F222E",
"(-	c #2F232F",
"_-	c #3A313A",
":-	c #3B333A",
"<-	c #392D36",
"[-	c #322534",
"}-	c #2F222F",
"|-	c #534658",
"1-	c #423447",
"2-	c #403243",
"3-	c #433647",
"4-	c #473C4E",
"5-	c #463B4E",
"6-	c #43384B",
"7-	c #3D3244",
"8-	c #392E3D",
"9-	c #4E4557",
"0-	c #4C4053",
"a-	c #3F3043",
"b-	c #403143",
"c-	c #6C5A6C",
"d-	c #695669",
"e-	c #604E60",
"f-	c #574959",
"g-	c #554857",
"h-	c #3C303D",
"i-	c #716A85",
"j-	c #787190",
"k-	c #786E8C",
"l-	c #766C8A",
"m-	c #7A6F8C",
"n-	c #7D7390",
"o-	c #807799",
"p-	c #3B2F40",
"q-	c #4A3F54",
"r-	c #4D4459",
"s-	c #483F50",
"t-	c #585167",
"u-	c #625A74",
"v-	c #69607A",
"w-	c #5F546A",
"x-	c #5A4E65",
"y-	c #574B63",
"z-	c #554B61",
"A-	c #5A516A",
"B-	c #544D64",
"C-	c #4E485E",
"D-	c #433C4E",
"E-	c #555854",
"F-	c #50534F",
"G-	c #4E524D",
"H-	c #474746",
"I-	c #5A4D5D",
"J-	c #635565",
"K-	c #5E505F",
"L-	c #645564",
"M-	c #61505D",
"N-	c #665565",
"O-	c #6D5966",
"P-	c #7A6373",
"Q-	c #796474",
"R-	c #715D6D",
"S-	c #5D4F5D",
"T-	c #3D313C",
"U-	c #615970",
"V-	c #423746",
"W-	c #3C3543",
"X-	c #464744",
"Y-	c #655867",
"Z-	c #6C5A66",
"`-	c #6C5965",
" ;	c #5E4C58",
".;	c #3C3138",
"+;	c #6C5764",
"@;	c #675360",
"#;	c #5C4B57",
"$;	c #3F323E",
"%;	c #574E61",
"&;	c #443B4B",
"*;	c #554A5F",
"=;	c #3A3340",
"-;	c #434443",
";;	c #414141",
">;	c #424242",
",;	c #414040",
"';	c #554853",
");	c #675964",
"!;	c #65535E",
"~;	c #31292E",
"  . + @ # $ % & * & = = * - ; > , ' ) ! * ~ { { ] ^ / ( _ : < [ } | 1 2 3 4 5 6 ",
"7 8 9 0 a b c d e e f g h i j k l m n o p q r s t u v w x y z A B C D E F G H I ",
"J 8 K J a L M M M f g N O P Q R S T U V W t X Y Z `  ...+.@.#.$.B %.&.*.=.-.8 ;.",
"0 >.,.'.).L !.e ~.{.].^./.(._.:.<.[.}.|.1.2.3.4.5.6.7.8.9.0.a.b.c.d.e.f.,.>.8 ;.",
"g.h.i.j.k.l.m.n.o.p.q.r.s.t.u.v.w.x.y.z.A.B.C.D.E.F.G.H.I.J.K.L.M.N.O.P.Q.R.S.T.",
"U.V.W.X.Y.Z.`. +.+++@+#+$+%+&+*+=+-+;+>+,+'+)+!+~+{+]+^+/+(+_+:+<+[+}+|+1+2+3+4+",
"5+6+7+8+9+0+a+b+, c+d+e+f+g+h+i+j+k+l+m+n+o+p+q+r+s+t+u+v+v+v+w+w+w+x+w+y+z+D.A+",
"B+W C+D+7+7+E+9+F+G+H+I+J+K+L+M+N+O+P+Q+R+S+T+r U+U+v+r V+w+W+X+Y+f f Z+`+ @.@+@",
"D+W @@#@t $@W 6+%@&@*@=@-@;@>@>@,@'@)@P+!@~@{@]@^@v+q+r r r /@e p (@_@c q :@<@[@",
"}@C+q Y r r t W W a+|@1@-@-@2@2@3@4@5@)@6@7@8@q q+q+w+w+r q f f 9@0@a@b@p c@Z.+@",
"d@e@r s r r t W v f@g@h@-@-@-@i@j@k@l@)@m@n@o@p@q+W+{.{.q@r@s@t@u@v@w@x@y@z@A@B@",
"d@$@e@C@e@X D@E@F@G@H@I@J@K@L@M@N@O@,@P@Q@R@S@W+x+{.e T@U@V@W@X@Y@ .Z@`@ #.#+#@#",
"##{ $#%#4.&#*#=#-#;#>#,#'#)#!#~#{#]#^#/#(#_#:#<#[#}#|#c@1#2#3#4#5#6#7#8#8#9#0#- ",
"a#b#c#d#e#f#g#h#i#j#k#l#m#n#o#p#q#r#s#t#u#v#w#x#y#z#A#B#C#D#E#F#G#H#I#J#K#L#M#N#",
"O#P#B+Y+e@Q#R#w+x+X+S#T#U#V#W#~.X#1+Y#Z#`# $ $.$+$x @$#$$$%$&$*$G =$-$;$>$,$'$)$",
"p #@!$q t ~${$r u {.~.W+w+f f ]$e t ^$/$($W W 7+_$!$:$<$[$%$}$*$|$1$2$>$>$3$/@4$",
"5$6$4./@7$8$9$X+0$f a$w+f f f f e ($b$c$d$D@W W e$f$2+g$@$h$i$|$j$k$l$>$>$3$f & ",
"f W m$n$W B@~$7$o$p$q$r$M f M q@V#s$t$u$v$w$D@7+x$y$f$z$y$A$B$C$D$E$p F$N f f & ",
"q G$H$I$J$K$+$L$M$N$u@b@O$P$Q$p :@R$S$7.T$U$V$W$G$X$m$Y$Z$`$ %.%+%@%v f #%$@$%:@",
"/@%%&%*%=%-%}@x@;%>%,%u@'%o d@)%!%~%{%X.]%T$^%D+/%(%_%d@m$:%<%[%}%|%1%2%o.5#3%X$",
"3%4%5%6%6%7%v#8%N 9%[#0%a%b%c%d%e%f%g%G.G.h%i%j%0#k%Z.c+l%m%n%o%p%q%r%s%t%u%v%w%",
"x%y%z%A%B%C%D%x%E%F%G%H%I%J%&+K%L%M%N%O%P%Q%R%S%T%U%V%W%X%Y%W+Z%`% &.&+&@&6+#&$&",
"%&&&*&=&-&;&>&,&'&)&!&~&{&z#]&F ^&/&(&_&_&:&/&<&[&}&x$|&p f q t t w+U+q+w+%%1&2&",
"3&4&5&5&6&7&8&9&0&a&b&c&W 4+d&^&_&e&:&_&_&_&e&(&f&g&h&p f f Y+r V+y+y+w+w+X$i&j&",
"k&l&m&n&o&m&l&p&;&q&r&W e =#s&t&e&u&u&_&_&_&_&8 G v&w&7+f f f q x&V+y+V+d 9+y&z&",
"A&B&l&l&5&C&D&E&F&G&8+p H&++I&=.(&J&_&:&/&(&(&K&]&L&M&W f f /@q y+y+y+V+#@N&O&P&",
"Q&R&4&S&T&U&V&W&'&X&Y&Z&G$`& *.*K&|$(&*$*$K&+*l@@*#*$*p ]$@@6$w+y+v+y+q @@%*&***",
"y&=*-*;*O&>*,*'*)*!*~*{*9+]*^*/*(*l@]&*$]&l@_*:*4@=$<*u [*}*|*1*r y+e@Y 2*4+3*4*",
"5*6*7*8*9*0*a*b*c*d*e*f*g*h*>#i*j*k*l*m*).n*o*p*q*r*-%s*t*t*u*v*h*w*x*F.H.u.y*z*",
"A*B*C*D*E*F*G*H*I*J*K*l&S&L*M*N*O*P*Q*R*S*T*U*V*W*X*Y*Z*`* =.=+=@=#=$=%=&=*===-=",
";=>=,=U+^@r '=A&A&)==&p&A&!=!=!=A&~=j {=]=^=/=(=_=#%W W p p ]$2%^ :=<=[=#@{.e _@",
"}=#@q+w+a$|=1=k&A&A&&&2=V&!=V&V&V&3=4=[$+.5=6=7=7+7+=%8=8=(@p 9=..0=a=w+w+{.e 4$",
"(@b=a$X+#@q c=3&A&A&d=e=!=V&V&V&f=g=h=i=j=k=l=8=p p >$6=6==%p v /$m=n=q+X+f f & ",
"o==%p=q=f r=s=t=k&k&A&u=A&V&V&V&d=v=w=x=y=z=A=p 7+ $F$6=*%6=B=x@z$:=C=w+f f f 9+",
"B=*%D=D=E=}@F=G=k&3&3&c.H=A&!=V&F&I=J=##0+K=L=f C+@@e 6=*%*%M=N=O= #P=d f f p .$",
"Q=D=E=R=R=%%S=T=U=V=W=X=Y=Z=`= -.-+-`.x$@-^$#-a$q t p =%*%$-%-&-*-`$=---F@N&x$e$",
";->-,-;-7%'-)-!-~-{-]-^-/-(-_-:-S=<-I.I.[-}-|-1-u%2-3-4-5-6-7-8-t$`&9-0-a-a-b-E.",
"c-d-e-f-g-h-i-j-k-l-m-n-o-m#p-q-r-s-t-u-v-w-x-y-z- =A-B-C-D-E-F-G-H-I-J-K-L-M-N-",
"O-P-Q-R-S-T-U-@@f /@w+#@{.T+S$V-+.!$d@W p q r q Y+p W d@Y*W-X-p&A M*Y-,@Z-`-t& ;",
".;;.+;@;#;$;q$p C+]$%;]$p 6$s#&;Z$N&1.o=C+X X X C+2%*;B+( =;-;;;>;,;';);E E !;~;"};
