/* XPM */
static char *_131_02f575a2a6a8d8b671ce7a85d11b2903db8809ea84e0f199cf080c57a82b7735[] = {
/* columns rows colors chars-per-pixel */
"40 40 89 1 ",
"  c #0D1633",
". c #111A34",
"X c #161E39",
"o c #191F3A",
"O c #17213A",
"+ c #1B243D",
"@ c #1E293F",
"# c #20263F",
"$ c #20293E",
"% c #1E2640",
"& c #1F2940",
"* c #212640",
"= c #232C43",
"- c #272F49",
"; c #263146",
": c #283246",
"> c #263148",
", c #2B354A",
"< c #2E394D",
"1 c #34374F",
"2 c #313B4E",
"3 c #2D3B50",
"4 c #343D52",
"5 c #393C54",
"6 c #3E3F58",
"7 c #364154",
"8 c #394456",
"9 c #3B4957",
"0 c #374359",
"q c #3B455A",
"w c #3D4A5C",
"e c #3F505C",
"r c #3E4D62",
"t c #43455D",
"y c #4A465F",
"u c #424C5E",
"i c #4B4B5F",
"p c #43515E",
"a c #424660",
"s c #434D61",
"d c #4A4D62",
"f c #504F65",
"g c #445264",
"h c #4A5466",
"j c #475867",
"k c #4A5864",
"l c #46566A",
"z c #4B5669",
"x c #47596B",
"c c #4C5A6C",
"v c #515366",
"b c #51566A",
"n c #515D6E",
"m c #475770",
"M c #465C71",
"N c #4C5E72",
"B c #535E71",
"V c #4E616E",
"C c #52606F",
"Z c #4E6274",
"A c #4D657A",
"S c #4E687D",
"D c #536373",
"F c #586575",
"G c #5A6A77",
"H c #536679",
"J c #556A7B",
"K c #5A6C7C",
"L c #5F707F",
"P c #616D7C",
"I c #526D82",
"U c #5B6E81",
"Y c #4F7187",
"T c #547185",
"R c #5C7384",
"E c #547589",
"W c #5D7589",
"Q c #57798E",
"! c #5B798A",
"~ c #5D7D91",
"^ c #627484",
"/ c #687182",
"( c #627789",
") c #647A8A",
"_ c #6B7B8A",
"` c #607D90",
"' c #68808F",
"] c #668192",
"[ c #698392",
/* pixels */
"q0www,O7ZJRINczhh=qpu747= =<17887:=$9jr0",
"LJGFDq$jlIJzzvvyw;9DDDDGc+qCVHJGFk;:kRKG",
"ghhvdq;pmJhhddfu4-DRDI(Fj<sDnkghbCw,h_ns",
"ddgq<4=4hDbdfvdq=j[DBB/Uj11cBnnDDC9,jFiu",
"u8=;,>O>0705qq<@w]KbbnkPF7;q5q7771=:wnha",
"<=rJRG9+;&&&&$O7RKbnCnnnCg$=>-==;:,+<574",
"O$3427q@<jZSAAr>DDvbnnnkcw+,7wuggnn:+-==",
"Vcjrwq77+;4ussu=9bbbnDcnc2-BDJKGJLD7=qgx",
"'[[')!RJ$<+.:<7=$wdkznccw*qP/~TEQQE7;wD(",
"wtuuuwp,<L)78CHJ<;224<<1,+kFnTIlNAA7&7rq",
"===;=:==gVSJ@wgh2+,<<>-=o+uncgHUhmg7X*=%",
"xcckw9,>jAxj@@;@+89uu774<&4kjhthKcu,=lgg",
"Dnnnzgw=gZr;;rxH(^Kchjkhu=2wausuuzp:,FFB",
"idtisjr-eVr+j!WJHZmhjhhhp:,7usuasd9$:iyi",
"111,,>%:cDc;wxMccjgshchw7++427uqq97==151",
"=;=:1,;O4lw;>7777wqqpw1;@@++:144722= *--",
"hDRETJn>X%%+o=@&;772,;;>7972$O=@&-:,+,7t",
"IETYAccw%qcZJJcq+&>74qwxZNMj<@pcDUHu:;wN",
"ZMlhhhnu=NJITE`c,wVccnZJSZHc7,V!`UNc9+7D",
"cxcccxcj>zhhccBc<uncccDncnzh9,ZJHcchp:>D",
"lcxczcg>,cchhdhh79kknDDzbbnhe:eHchchk8+r",
"xcccnkz7=gZZNhdh9<jVDAcadgdke,<DGCDncg>7",
"jZccggjp&,hcccjg,$kCDDNczzhcg><gCVcVcp><",
"&<<;;:;;%%>,;=:;$+wphZZHHNcgp7=9ewww7<+O",
"7.<gwzNNZNw+<<<qk7;ppggrrgsww,O:;;@-<7gg",
"J7,ZHNNNNcw>DGHJBg;>70wrrrw9<=gDDF<7)WKH",
"x9,rlsaahg>,nUZxhh<;97,,<<:,;=kPHUw4KHkz",
"c7+7550ww2;uDZrgsc7,gVZVDZVFC,7dtcs4hdbn",
">==*Ooo&%OqjJlrsuhw<pjTTTJDHC7:kdku<wccr",
";uHNmlsrw&qVDlssaaq2wNAxgahhhw=whuq+==++",
"HGmlzzzzh<+sczhdydq2wlSlhhhbs9X+;==+<qqc",
"Nxzldzzzw7+>0655442=7qrrrdhuw::qqqk7>hcM",
"00rsgwqq3<++-=--,<,%>>>,17<<,<DSJJJq=5q0",
"%++%+=%+&@++++o+OO%5,&<2,><;$KWHZDNw+;&&",
"cr03<+O0jzczgs-=gh,=qDHFFKGw>cNhzzcw<ZDm",
"TTJUR0+jxAHchh5=BHw;NhgbnLVg1aaattxj>cHZ",
"lANmIl+7slddidq=tas,bzhhucgu<8khdapw;whu",
"6qlANs<>5rrru7q:4sq,uwrauuu7++<>::;@;qtt",
"55qwq78&&-=->>,,+34=7243<4<=1gxjZDc,=777",
"4422442-00qqujzkq%=;@,--:+<gCCCVcck7X=,1"
};
