/* XPM */
static char * awesome_enemy_xpm[] = {
"48 40 850 2",
"  	c None",
". 	c #605450",
"+ 	c #807067",
"@ 	c #71512D",
"# 	c #835D0F",
"$ 	c #896617",
"% 	c #A37B16",
"& 	c #936C1C",
"* 	c #816026",
"= 	c #796C60",
"- 	c #756555",
"; 	c #7D5F22",
"> 	c #A3812F",
", 	c #95700C",
"' 	c #997003",
") 	c #966E09",
"! 	c #A07508",
"~ 	c #986F08",
"{ 	c #8F660E",
"] 	c #775B36",
"^ 	c #846422",
"/ 	c #876619",
"( 	c #8A6817",
"_ 	c #96710F",
": 	c #9D7610",
"< 	c #8E6909",
"[ 	c #8E680E",
"} 	c #986C06",
"| 	c #996D06",
"1 	c #9F740A",
"2 	c #966D11",
"3 	c #7F590E",
"4 	c #835A07",
"5 	c #7B5C30",
"6 	c #7D664E",
"7 	c #977113",
"8 	c #916F19",
"9 	c #8C6C23",
"0 	c #957123",
"a 	c #9F7B1E",
"b 	c #957220",
"c 	c #946E16",
"d 	c #8F6811",
"e 	c #885E0E",
"f 	c #89610D",
"g 	c #997112",
"h 	c #976D0D",
"i 	c #926807",
"j 	c #7C5206",
"k 	c #82580A",
"l 	c #7B5727",
"m 	c #7C6C58",
"n 	c #7B5E23",
"o 	c #9E7B1D",
"p 	c #9F7F33",
"q 	c #8E7036",
"r 	c #805D2D",
"s 	c #85631B",
"t 	c #7A5A1F",
"u 	c #76561D",
"v 	c #97731B",
"w 	c #A27C1F",
"x 	c #9B7624",
"y 	c #8E7027",
"z 	c #8C6B24",
"A 	c #997623",
"B 	c #765414",
"C 	c #7A510A",
"D 	c #77520A",
"E 	c #85570C",
"F 	c #7E592D",
"G 	c #927130",
"H 	c #937739",
"I 	c #957736",
"J 	c #866527",
"K 	c #856C3C",
"L 	c #8E6A22",
"M 	c #9A741B",
"N 	c #866721",
"O 	c #906D1E",
"P 	c #9C7617",
"Q 	c #A27914",
"R 	c #A88115",
"S 	c #A18020",
"T 	c #896A2A",
"U 	c #9C7A2A",
"V 	c #8E6810",
"W 	c #885B06",
"X 	c #734D09",
"Y 	c #855102",
"Z 	c #9C6F0A",
"` 	c #73532E",
" .	c #866226",
"..	c #906509",
"+.	c #805A11",
"@.	c #7D5B21",
"#.	c #8A6415",
"$.	c #735116",
"%.	c #856834",
"&.	c #977221",
"*.	c #9B771D",
"=.	c #88651C",
"-.	c #916607",
";.	c #9F7305",
">.	c #9B7313",
",.	c #A9841C",
"'.	c #946C1E",
").	c #94722E",
"!.	c #846017",
"~.	c #94690A",
"{.	c #7B5206",
"].	c #885D0E",
"^.	c #AA7E0F",
"/.	c #886119",
"(.	c #8E7A54",
"_.	c #81684C",
":.	c #A37405",
"<.	c #9B6E02",
"[.	c #906817",
"}.	c #805E2A",
"|.	c #835F16",
"1.	c #805A12",
"2.	c #855F0B",
"3.	c #8C6E29",
"4.	c #8D6A1E",
"5.	c #97741E",
"6.	c #9E7306",
"7.	c #AB7C06",
"8.	c #A97E0E",
"9.	c #B08715",
"0.	c #A3791B",
"a.	c #936F17",
"b.	c #855B11",
"c.	c #856215",
"d.	c #794C08",
"e.	c #8D6717",
"f.	c #946C29",
"g.	c #916929",
"h.	c #8C7864",
"i.	c #946908",
"j.	c #AE8107",
"k.	c #A98118",
"l.	c #98731B",
"m.	c #896721",
"n.	c #765915",
"o.	c #815F14",
"p.	c #7C5A12",
"q.	c #805E14",
"r.	c #85641A",
"s.	c #7E5E22",
"t.	c #855F0F",
"u.	c #976D06",
"v.	c #A37709",
"w.	c #95701A",
"x.	c #8A6519",
"y.	c #7D540D",
"z.	c #966205",
"A.	c #84580E",
"B.	c #885D0D",
"C.	c #7D5D12",
"D.	c #875A0F",
"E.	c #845104",
"F.	c #7F6652",
"G.	c #755C4F",
"H.	c #A57805",
"I.	c #A37A0E",
"J.	c #83611A",
"K.	c #7E560E",
"L.	c #764D11",
"M.	c #825713",
"N.	c #815C10",
"O.	c #926C17",
"P.	c #8C6918",
"Q.	c #795A14",
"R.	c #826129",
"S.	c #927133",
"T.	c #98722E",
"U.	c #896310",
"V.	c #896111",
"W.	c #966607",
"X.	c #A1730B",
"Y.	c #8C640C",
"Z.	c #7D560E",
"`.	c #A3740C",
" +	c #9C6E0B",
".+	c #7B593A",
"++	c #896E52",
"@+	c #9E7107",
"#+	c #88600A",
"$+	c #A07917",
"%+	c #A8831E",
"&+	c #947015",
"*+	c #795413",
"=+	c #725012",
"-+	c #83600F",
";+	c #A17614",
">+	c #8B6616",
",+	c #846225",
"'+	c #A28039",
")+	c #9B782D",
"!+	c #8F6B24",
"~+	c #916E29",
"{+	c #A38144",
"]+	c #8F6A28",
"^+	c #94690C",
"/+	c #886011",
"(+	c #8C580D",
"_+	c #985E04",
":+	c #A06F07",
"<+	c #895A0A",
"[+	c #825524",
"}+	c #7C582B",
"|+	c #9D7109",
"1+	c #9F7306",
"2+	c #946E22",
"3+	c #92723D",
"4+	c #816017",
"5+	c #7E5D15",
"6+	c #8C6813",
"7+	c #A17711",
"8+	c #A47916",
"9+	c #82622B",
"0+	c #856529",
"a+	c #977020",
"b+	c #A3792C",
"c+	c #A0792F",
"d+	c #9C763A",
"e+	c #9F7B44",
"f+	c #966A10",
"g+	c #936B12",
"h+	c #885A13",
"i+	c #A5720C",
"j+	c #A36E05",
"k+	c #83570C",
"l+	c #9C6504",
"m+	c #7E5329",
"n+	c #734D1D",
"o+	c #9E7103",
"p+	c #865E0A",
"q+	c #9E7F3F",
"r+	c #836226",
"s+	c #8C7244",
"t+	c #8B651A",
"u+	c #7D5612",
"v+	c #906807",
"w+	c #8E6926",
"x+	c #8B6937",
"y+	c #A1772F",
"z+	c #92640B",
"A+	c #976408",
"B+	c #986504",
"C+	c #A17939",
"D+	c #A38554",
"E+	c #9A7219",
"F+	c #8A5D0D",
"G+	c #88570E",
"H+	c #915C0A",
"I+	c #764807",
"J+	c #885306",
"K+	c #846149",
"L+	c #5E4F41",
"M+	c #8D6A30",
"N+	c #9A7423",
"O+	c #906819",
"P+	c #8F6B2B",
"Q+	c #8A6730",
"R+	c #9F7A43",
"S+	c #976B04",
"T+	c #7E580A",
"U+	c #8B6114",
"V+	c #836232",
"W+	c #957852",
"X+	c #8B5608",
"Y+	c #6A2707",
"Z+	c #841507",
"`+	c #643A0B",
" @	c #9F6F05",
".@	c #A27834",
"+@	c #9D792E",
"@@	c #8A5A08",
"#@	c #965D08",
"$@	c #8E5807",
"%@	c #854D04",
"&@	c #885303",
"*@	c #685148",
"=@	c #836729",
"-@	c #A27812",
";@	c #906517",
">@	c #835D1A",
",@	c #845D28",
"'@	c #824E04",
")@	c #A37931",
"!@	c #957239",
"~@	c #7F570E",
"{@	c #9C845B",
"]@	c #8C550D",
"^@	c #623505",
"/@	c #8E1C1A",
"(@	c #9C302F",
"_@	c #5A0202",
":@	c #875C08",
"<@	c #A06C10",
"[@	c #9C6F12",
"}@	c #895606",
"|@	c #9B6205",
"1@	c #97620E",
"2@	c #905802",
"3@	c #6C440F",
"4@	c #8B827D",
"5@	c #976D08",
"6@	c #845B0B",
"7@	c #7B5311",
"8@	c #661508",
"9@	c #920A0C",
"0@	c #6A3307",
"a@	c #90661A",
"b@	c #89600E",
"c@	c #8E620D",
"d@	c #8E5104",
"e@	c #5D1A02",
"f@	c #9C595A",
"g@	c #940103",
"h@	c #710202",
"i@	c #754C09",
"j@	c #9C6B18",
"k@	c #96680F",
"l@	c #7C510B",
"m@	c #9E6607",
"n@	c #9B6608",
"o@	c #895D0C",
"p@	c #674826",
"q@	c #6F231E",
"r@	c #660002",
"s@	c #590305",
"t@	c #492827",
"u@	c #776A67",
"v@	c #5C3C07",
"w@	c #68450C",
"x@	c #5C0204",
"y@	c #A14245",
"z@	c #8F0102",
"A@	c #723C0C",
"B@	c #916C25",
"C@	c #83612D",
"D@	c #60350A",
"E@	c #6C1803",
"F@	c #C2A145",
"G@	c #A04404",
"H@	c #760202",
"I@	c #765225",
"J@	c #946519",
"K@	c #8B590C",
"L@	c #8C5D0D",
"M@	c #88560C",
"N@	c #875707",
"O@	c #84570E",
"P@	c #7E6E6C",
"Q@	c #95534F",
"R@	c #7B190A",
"S@	c #8F3B2C",
"T@	c #894132",
"U@	c #8B6C6C",
"V@	c #A99392",
"W@	c #733E3D",
"X@	c #8B6364",
"Y@	c #775B5C",
"Z@	c #775C5F",
"`@	c #551D1F",
" #	c #611D05",
".#	c #804F06",
"+#	c #552C08",
"@#	c #6E450C",
"##	c #400A04",
"$#	c #AB7249",
"%#	c #BB9419",
"&#	c #882F0A",
"*#	c #936C25",
"=#	c #A37F3D",
"-#	c #7A540C",
";#	c #794103",
">#	c #B89C12",
",#	c #B4885B",
"'#	c #750204",
")#	c #836842",
"!#	c #96661F",
"~#	c #945904",
"{#	c #8F5D06",
"]#	c #87550B",
"^#	c #834706",
"/#	c #604432",
"(#	c #8E5435",
"_#	c #871A06",
":#	c #850C03",
"<#	c #880A02",
"[#	c #761001",
"}#	c #740B04",
"|#	c #700A06",
"1#	c #641405",
"2#	c #6D2721",
"3#	c #6A3035",
"4#	c #795551",
"5#	c #6A4B4A",
"6#	c #5F0405",
"7#	c #6B1702",
"8#	c #812906",
"9#	c #813B04",
"0#	c #653706",
"a#	c #5A3308",
"b#	c #9B7007",
"c#	c #AF9C44",
"d#	c #965528",
"e#	c #855E18",
"f#	c #8B641C",
"g#	c #774E06",
"h#	c #672F05",
"i#	c #BFA205",
"j#	c #B48608",
"k#	c #6F0204",
"l#	c #967342",
"m#	c #8B652A",
"n#	c #895808",
"o#	c #855A0C",
"p#	c #87570D",
"q#	c #7F5416",
"r#	c #8B5F22",
"s#	c #8D4F08",
"t#	c #9E4D06",
"u#	c #922905",
"v#	c #860E04",
"w#	c #6A181A",
"x#	c #725456",
"y#	c #76605F",
"z#	c #735E5F",
"A#	c #561B1C",
"B#	c #6C1403",
"C#	c #734948",
"D#	c #644036",
"E#	c #7B4410",
"F#	c #894403",
"G#	c #843F02",
"H#	c #622E04",
"I#	c #6A3B07",
"J#	c #C3AA0F",
"K#	c #A36322",
"L#	c #856126",
"M#	c #926B22",
"N#	c #865E11",
"O#	c #572A07",
"P#	c #A6742F",
"Q#	c #A35E23",
"R#	c #6B1805",
"S#	c #A37521",
"T#	c #9F7021",
"U#	c #844C08",
"V#	c #854604",
"W#	c #876B53",
"X#	c #7A4F1A",
"Y#	c #935B09",
"Z#	c #9C4F04",
"`#	c #A35603",
" $	c #9B4A04",
".$	c #882D05",
"+$	c #831904",
"@$	c #7D0604",
"#$	c #731815",
"$$	c #5A2B2D",
"%$	c #734444",
"&$	c #984746",
"*$	c #930903",
"=$	c #64191B",
"-$	c #714746",
";$	c #5E3033",
">$	c #4C1917",
",$	c #705857",
"'$	c #77443E",
")$	c #791208",
"!$	c #8A2E04",
"~$	c #802C04",
"{$	c #803A02",
"]$	c #813D05",
"^$	c #6F460B",
"/$	c #7C3609",
"($	c #81482B",
"_$	c #885E11",
":$	c #8C6759",
"<$	c #825319",
"[$	c #866311",
"}$	c #77551F",
"|$	c #794B11",
"1$	c #6F490F",
"2$	c #996A14",
"3$	c #A57016",
"4$	c #995D06",
"5$	c #864F05",
"6$	c #815A36",
"7$	c #8F5A08",
"8$	c #944F07",
"9$	c #975205",
"0$	c #8A490A",
"a$	c #854510",
"b$	c #885942",
"c$	c #8A6158",
"d$	c #8D625C",
"e$	c #6E221E",
"f$	c #5B070A",
"g$	c #830603",
"h$	c #841009",
"i$	c #82322E",
"j$	c #800F00",
"k$	c #5F4345",
"l$	c #785254",
"m$	c #820704",
"n$	c #881904",
"o$	c #862004",
"p$	c #823205",
"q$	c #864603",
"r$	c #824704",
"s$	c #704F1E",
"t$	c #875C11",
"u$	c #8C650E",
"v$	c #754B3A",
"w$	c #6A3D3D",
"x$	c #681E1C",
"y$	c #5D2E07",
"z$	c #822C06",
"A$	c #9C6918",
"B$	c #8F7146",
"C$	c #926329",
"D$	c #6A3D08",
"E$	c #8C4C08",
"F$	c #804007",
"G$	c #976009",
"H$	c #7E4308",
"I$	c #7D4105",
"J$	c #905508",
"K$	c #844E0D",
"L$	c #866857",
"M$	c #653737",
"N$	c #7E1C19",
"O$	c #892724",
"P$	c #93615D",
"Q$	c #72160F",
"R$	c #780E04",
"S$	c #907173",
"T$	c #85231F",
"U$	c #794744",
"V$	c #65555A",
"W$	c #580404",
"X$	c #790703",
"Y$	c #681B06",
"Z$	c #603830",
"`$	c #8C6F4D",
" %	c #865D27",
".%	c #96621F",
"+%	c #916511",
"@%	c #734E54",
"#%	c #460303",
"$%	c #400203",
"%%	c #510504",
"&%	c #6C320A",
"*%	c #9A610A",
"=%	c #84510A",
"-%	c #7C4D0D",
";%	c #793F02",
">%	c #804909",
",%	c #924D03",
"'%	c #5B2D0C",
")%	c #7A3C08",
"!%	c #9A5B05",
"~%	c #8B5F2F",
"{%	c #997358",
"]%	c #854B39",
"^%	c #744444",
"/%	c #6C2F30",
"(%	c #8E0801",
"_%	c #83433E",
":%	c #917575",
"<%	c #7C2A2D",
"[%	c #6A0A02",
"}%	c #835959",
"|%	c #82393A",
"1%	c #600000",
"2%	c #3C0F12",
"3%	c #5D0706",
"4%	c #5C1110",
"5%	c #815204",
"6%	c #845005",
"7%	c #996E15",
"8%	c #7A502F",
"9%	c #9D6B0D",
"0%	c #3E0F05",
"a%	c #471D1D",
"b%	c #652A11",
"c%	c #845004",
"d%	c #8A4C03",
"e%	c #8C4F04",
"f%	c #955604",
"g%	c #8A4B05",
"h%	c #954F04",
"i%	c #5F3107",
"j%	c #6C4120",
"k%	c #816358",
"l%	c #8F6B40",
"m%	c #9B7847",
"n%	c #8C6363",
"o%	c #890501",
"p%	c #7B241F",
"q%	c #8B6967",
"r%	c #6E2B2A",
"s%	c #630804",
"t%	c #854D4E",
"u%	c #7D2D27",
"v%	c #703F3E",
"w%	c #5D3F40",
"x%	c #5B3B3D",
"y%	c #624949",
"z%	c #966312",
"A%	c #7A4907",
"B%	c #966108",
"C%	c #A5740E",
"D%	c #AF7A0B",
"E%	c #542505",
"F%	c #2D0202",
"G%	c #4F0E04",
"H%	c #915C0F",
"I%	c #905505",
"J%	c #8E5405",
"K%	c #955704",
"L%	c #8D5408",
"M%	c #693704",
"N%	c #834A09",
"O%	c #7B4D0E",
"P%	c #8D6642",
"Q%	c #8D6338",
"R%	c #A96E22",
"S%	c #B07D3C",
"T%	c #A37A4D",
"U%	c #8F7052",
"V%	c #742C2D",
"W%	c #840301",
"X%	c #770E06",
"Y%	c #855453",
"Z%	c #701B16",
"`%	c #72140D",
" &	c #883C37",
".&	c #7E211D",
"+&	c #714C4A",
"@&	c #694F53",
"#&	c #724E32",
"$&	c #7C4F13",
"%&	c #955906",
"&&	c #A4700C",
"*&	c #A6720D",
"=&	c #592416",
"-&	c #520E13",
";&	c #581C05",
">&	c #734913",
",&	c #734512",
"'&	c #653507",
")&	c #582707",
"!&	c #6B2B05",
"~&	c #8C542B",
"{&	c #864D09",
"]&	c #7C4908",
"^&	c #7B450A",
"/&	c #7B4409",
"(&	c #7B4208",
"_&	c #935906",
":&	c #824D0A",
"<&	c #795118",
"[&	c #867058",
"}&	c #7B474B",
"|&	c #810201",
"1&	c #760C03",
"2&	c #81413D",
"3&	c #7C1E14",
"4&	c #831F18",
"5&	c #85302C",
"6&	c #670603",
"7&	c #59393C",
"8&	c #78604C",
"9&	c #69461C",
"0&	c #543F33",
"a&	c #522F31",
"b&	c #5E343B",
"c&	c #5C362D",
"d&	c #4F4645",
"e&	c #6E4D41",
"f&	c #7B411F",
"g&	c #7E3602",
"h&	c #7E5136",
"i&	c #784314",
"j&	c #7A430A",
"k&	c #8A4103",
"l&	c #904702",
"m&	c #A46909",
"n&	c #7C490B",
"o&	c #8A5732",
"p&	c #8B534C",
"q&	c #923D35",
"r&	c #7B413F",
"s&	c #8B0304",
"t&	c #75100A",
"u&	c #82392F",
"v&	c #7B120B",
"w&	c #83251E",
"x&	c #82211E",
"y&	c #5F2B2D",
"z&	c #6B494C",
"A&	c #785448",
"B&	c #793A0A",
"C&	c #733103",
"D&	c #6A2E0E",
"E&	c #763304",
"F&	c #914503",
"G&	c #974E02",
"H&	c #864908",
"I&	c #69340A",
"J&	c #783D1E",
"K&	c #7D2F2D",
"L&	c #812927",
"M&	c #A35859",
"N&	c #864242",
"O&	c #873D40",
"P&	c #74140E",
"Q&	c #7B2C22",
"R&	c #750503",
"S&	c #81221C",
"T&	c #612020",
"U&	c #938282",
"V&	c #6B4E4F",
"W&	c #6B3C3A",
"X&	c #7C1A17",
"Y&	c #7E2925",
"Z&	c #7A3232",
"`&	c #7A6462",
" *	c #644843",
".*	c #623926",
"+*	c #55250A",
"@*	c #6F330A",
"#*	c #6B2804",
"$*	c #8F4603",
"%*	c #9E5803",
"&*	c #9E5E06",
"**	c #61370B",
"=*	c #4D3424",
"-*	c #861B15",
";*	c #A22F28",
">*	c #6F0706",
",*	c #76100E",
"'*	c #6B1713",
")*	c #730B08",
"!*	c #712724",
"~*	c #795956",
"{*	c #624343",
"]*	c #6A2224",
"^*	c #5F0906",
"/*	c #68201D",
"(*	c #730802",
"_*	c #7A0A01",
":*	c #840802",
"<*	c #951E10",
"[*	c #84504B",
"}*	c #80615E",
"|*	c #94645D",
"1*	c #754339",
"2*	c #64453A",
"3*	c #693A25",
"4*	c #693A26",
"5*	c #6E544A",
"6*	c #820C03",
"7*	c #870907",
"8*	c #650604",
"9*	c #5A0402",
"0*	c #760C0A",
"a*	c #705D5D",
"b*	c #796165",
"c*	c #753435",
"d*	c #620603",
"e*	c #73524F",
"f*	c #61262B",
"g*	c #660801",
"h*	c #6F0A01",
"i*	c #790901",
"j*	c #960E03",
"k*	c #8E1813",
"l*	c #8F6A69",
"m*	c #87534D",
"n*	c #873E2F",
"o*	c #793435",
"p*	c #860803",
"q*	c #5D0202",
"r*	c #630302",
"s*	c #643A39",
"t*	c #6B585C",
"u*	c #7C6166",
"v*	c #520D0A",
"w*	c #510E0F",
"x*	c #713C38",
"y*	c #751E1A",
"z*	c #75130A",
"A*	c #770902",
"B*	c #7E0801",
"C*	c #8F0501",
"D*	c #A40E03",
"E*	c #923B3A",
"F*	c #753A38",
"G*	c #8A321B",
"H*	c #8D0604",
"I*	c #6C0201",
"J*	c #690201",
"K*	c #86807E",
"L*	c #938A8B",
"M*	c #5B3A3B",
"N*	c #653736",
"O*	c #591413",
"P*	c #5B0403",
"Q*	c #520F0C",
"R*	c #561411",
"S*	c #560B08",
"T*	c #650202",
"U*	c #830902",
"V*	c #860902",
"W*	c #830601",
"X*	c #871004",
"Y*	c #8A3527",
"Z*	c #732728",
"`*	c #6F0402",
" =	c #693F41",
".=	c #918787",
"+=	c #706968",
"@=	c #4C3434",
"#=	c #572828",
"$=	c #621613",
"%=	c #620E0B",
"&=	c #550403",
"*=	c #470202",
"==	c #2D0102",
"-=	c #480403",
";=	c #680402",
">=	c #7B0602",
",=	c #740301",
"'=	c #832B26",
")=	c #B7B1AF",
"!=	c #615050",
"~=	c #463233",
"{=	c #6B1F1E",
"]=	c #810806",
"^=	c #720503",
"/=	c #734946",
"                                                                                                ",
"                                                                                                ",
"                                            .                                                   ",
"                                    + @ # $ % & *                                               ",
"                              = - ; > , ' ) ! ~ { ]                                             ",
"                          ^ / ( _ : < [ } | 1 2 3 4 5                                           ",
"                      6 7 8 9 0 a b c d e f g h i j k l                                         ",
"                  m n o p q r s t u v w x y z A B C D E F                                       ",
"                  G H I J K L M N O P Q R S T U V W X Y Z `                                     ",
"                 ...+.@.#.$.%.&.*.=.-.;.>.,.'.).!.~.{.].^./.(.                                  ",
"              _.:.<.[.}.|.1.2.3.4.5.6.7.8.9.0.a.b.c.d.e.f.g.h.                                  ",
"              i.j.k.l.m.n.o.p.q.r.s.t.u.v.w.x.y.z.A.B.C.D.E.F.                                  ",
"            G.H.I.q.J.K.L.M.N.O.P.Q.R.S.T.U.V.k W.X.Y.Z.`. +.+                                  ",
"            ++@+#+$+%+&+*+=+-+;+>+,+'+)+!+~+{+]+^+/+(+_+:+<+[+                                  ",
"            }+|+1+2+3+4+5+6+7+8+9+0+a+b+c+d+e+f+g+h+i+j+k+l+m+                                  ",
"            n+o+p+q+r+s+t+u+v+w+s+x+y+z+A+B+C+D+E+F+G+H+I+J+K+                                  ",
"            L+M+N+O+P+Q+R+S+T+U+V+W+X+Y+Z+`+ @.@+@@@#@$@%@&@*@                                  ",
"              =@-@;@>@,@'@)@!@~@{@]@^@/@(@_@:@<@[@}@|@1@2@3@                                    ",
"              4@5@6@7@8@9@0@a@b@c@d@e@f@g@h@i@j@k@l@m@n@o@p@        q@r@s@t@                    ",
"                u@v@w@x@y@z@A@B@C@D@E@F@G@H@I@J@K@L@M@N@O@P@Q@R@S@T@U@V@W@X@Y@                  ",
"          Z@`@ #.#+#@###$#%#&#*#=#-#;#>#,#'#)#!#~#{#]#^#/#(#_#:#<#[#}#|#1#2#3#4#                ",
"          5#6#7#8#9#0#a#b#c#d#e#f#g#h#i#j#k#l#m#n#o#p#q#r#s#t#u#v#w#x#y#      z#                ",
"        A#B#C#D#E#F#G#H#I#J#K#L#M#N#O#P#Q#R#S#T#U#V#W#X#Y#Z#`# $.$+$@$#$$$    %$  &$*$=$-$      ",
"      ;$>$,$'$)$!$~${$]$^$/$($_$:$<$[$}$|$1$2$3$4$5$6$7$8$9$0$a$b$  c$d$      e$f$g$h$i$j$      ",
"      k$  l$m$n$o$p$q$r$s$t$u$v$w$x$y$z$A$B$C$D$E$F$G$H$I$J$K$L$    M$      N$O$P$Q$R$S$T$U$    ",
"        V$W$X$Y$Z$`$     %.%+%@%#%$%%%&%*%=%-%;%>%,%'%)%!%~%{%]%^%        /%(%_%:%<%[%}%|%1%    ",
"        2%3%4%          5%6%7%8%9%0%a%b%c%d%e%f%g%h%i%j%k%  l%m%          n%o%p%q%r%s%t%u%v%    ",
"        w%x%y%          z%A%B%C%D%E%F%G%H%I%J%K%L%M%N%O%P%Q%R%S%T%U%      V%W%X%Y%Z%`% &.&+&    ",
"        @&              #&$&%&&&*&=&-&;&>&,&'&)&!&~&{&]&^&/&(&_&:&<&[&    }&|&1&2&3&4&5&6&      ",
"        7&                  8&9&0&a&b&c&d&    e&f&g&h&i&j&k&l&m&n&o&p&q&r&  s&t&u&v&w&x&y&      ",
"                                    z&          A&B&C&D&E&F&G&H&I&J&K&L&M&N&O&P&Q&R&S&T&        ",
"                          U&V&W&X&Y&Z&`&         *.*+*@*#*$*%*&***=*    -*;*>*,*'*)*!*          ",
"                      ~*{*]*^*/*(*_*:*<*[*        }*|*1*  2*3*4*5*        6*7*8*9*0*a*          ",
"                        b*c*d*e*f*g*h*i*j*k*l*    m*n*                    o*p*q*r*s*            ",
"                        t*u*v*w*x*y*z*A*B*C*D*E*F*G*                        H*I*J*  K*L*        ",
"                          M*N*O*P*Q*R*S*T*U*V*W*X*Y*                        Z*`* =  .=+=        ",
"                            @=#=$=%=&=*===-=;=>=,='=                                )=          ",
"                                  !=      ~={=]=^=/=                                            ",
"                                                                                                ",
"                                                                                                "};
