/* XPM */
static char * collectible_2_xpm[] = {
"40 40 992 2",
"  	c None",
". 	c #C1C0BE",
"+ 	c #99958E",
"@ 	c #867F75",
"# 	c #938B7D",
"$ 	c #ADA086",
"% 	c #BFAE88",
"& 	c #CAB991",
"* 	c #D1C3A3",
"= 	c #E2DAC7",
"- 	c #D2D2D1",
"; 	c #99958F",
"> 	c #6A604E",
", 	c #6D562E",
"' 	c #6F4E12",
") 	c #6E4C07",
"! 	c #845D09",
"~ 	c #9B700C",
"{ 	c #AA7E10",
"] 	c #B98C17",
"^ 	c #C49E35",
"/ 	c #C7A23B",
"( 	c #C1A352",
"_ 	c #CAB581",
": 	c #E7DFC9",
"< 	c #9B9079",
"[ 	c #63522D",
"} 	c #735419",
"| 	c #8D631C",
"1 	c #956718",
"2 	c #8E5C10",
"3 	c #84540C",
"4 	c #81520B",
"5 	c #80520B",
"6 	c #7D540B",
"7 	c #835D0C",
"8 	c #A38128",
"9 	c #D7B755",
"0 	c #F0CB52",
"a 	c #D6AB2F",
"b 	c #B6912F",
"c 	c #D9CAA5",
"d 	c #D0CECC",
"e 	c #8D8475",
"f 	c #BE9E51",
"g 	c #B68B23",
"h 	c #A37820",
"i 	c #875C15",
"j 	c #774E0C",
"k 	c #7B4E0E",
"l 	c #82500F",
"m 	c #865310",
"n 	c #83520F",
"o 	c #7A4A0B",
"p 	c #744709",
"q 	c #754909",
"r 	c #6B4306",
"s 	c #87620F",
"t 	c #DABB59",
"u 	c #FEDE69",
"v 	c #E2BD47",
"w 	c #AF892A",
"x 	c #E1D4B4",
"y 	c #958F85",
"z 	c #534427",
"A 	c #8D6910",
"B 	c #B98A22",
"C 	c #946417",
"D 	c #68420B",
"E 	c #6C470B",
"F 	c #8B5B12",
"G 	c #905B14",
"H 	c #8C5813",
"I 	c #83500E",
"J 	c #7B4B0B",
"K 	c #754709",
"L 	c #76480A",
"M 	c #75480A",
"N 	c #744B07",
"O 	c #AD8218",
"P 	c #EECE5F",
"Q 	c #FCDD69",
"R 	c #C29C33",
"S 	c #C6A34C",
"T 	c #CFCBC6",
"U 	c #6D624E",
"V 	c #583F10",
"W 	c #9B7115",
"X 	c #B68119",
"Y 	c #865917",
"Z 	c #5D3A0A",
"` 	c #784C10",
" .	c #935F16",
"..	c #966117",
"+.	c #925D15",
"@.	c #815110",
"#.	c #643D09",
"$.	c #4E2F06",
"%.	c #462B05",
"&.	c #472C04",
"*.	c #4D3105",
"=.	c #482D06",
"-.	c #704E07",
";.	c #D3AF44",
">.	c #FCDB66",
",.	c #C7A33C",
"'.	c #AC831D",
").	c #E1D4B5",
"!.	c #C0BCB6",
"~.	c #53442B",
"{.	c #64460B",
"].	c #A27417",
"^.	c #AB7218",
"/.	c #835212",
"(.	c #674410",
"_.	c #875713",
":.	c #966216",
"<.	c #976217",
"[.	c #855512",
"}.	c #633E09",
"|.	c #4D3006",
"1.	c #412805",
"2.	c #513409",
"3.	c #6E460F",
"4.	c #794C10",
"5.	c #7E4F10",
"6.	c #78490D",
"7.	c #663D09",
"8.	c #573805",
"9.	c #B18F2F",
"0.	c #FBDA65",
"a.	c #C29E3C",
"b.	c #977114",
"c.	c #AC9662",
"d.	c #BAB6B1",
"e.	c #4D3D24",
"f.	c #76530D",
"g.	c #A57215",
"h.	c #A86F16",
"i.	c #8B5911",
"j.	c #6C450B",
"k.	c #8F5E16",
"l.	c #9D6518",
"m.	c #976315",
"n.	c #794E0F",
"o.	c #653F09",
"p.	c #73470B",
"q.	c #875511",
"r.	c #875310",
"s.	c #85520F",
"t.	c #885211",
"u.	c #8A5512",
"v.	c #834F0F",
"w.	c #804D0D",
"x.	c #754809",
"y.	c #9F7D27",
"z.	c #FBD95F",
"A.	c #C2A03E",
"B.	c #9F7A1D",
"C.	c #7B6126",
"D.	c #C9C7C3",
"E.	c #C5C2BD",
"F.	c #55462C",
"G.	c #77530D",
"H.	c #A97514",
"I.	c #A66D16",
"J.	c #8E5B11",
"K.	c #71480B",
"L.	c #925E14",
"M.	c #A06817",
"N.	c #8A5913",
"O.	c #6C440C",
"P.	c #754C0B",
"Q.	c #83530D",
"R.	c #7D4E0D",
"S.	c #74480C",
"T.	c #5E3907",
"U.	c #643C06",
"V.	c #74460A",
"W.	c #7F4C0D",
"X.	c #824E0E",
"Y.	c #895511",
"Z.	c #7D510C",
"`.	c #B49231",
" +	c #FFDF65",
".+	c #BFA346",
"++	c #AA8321",
"@+	c #725612",
"#+	c #7C7772",
"$+	c #D0CDC9",
"%+	c #574A34",
"&+	c #67480E",
"*+	c #9F6914",
"=+	c #A06617",
"-+	c #966014",
";+	c #784C0D",
">+	c #915C15",
",+	c #9B6417",
"'+	c #754C10",
")+	c #643F09",
"!+	c #6A4108",
"~+	c #623E06",
"{+	c #4F350D",
"]+	c #453621",
"^+	c #40382E",
"/+	c #383129",
"(+	c #392E1E",
"_+	c #372813",
":+	c #3C2404",
"<+	c #5D3804",
"[+	c #7F4D0E",
"}+	c #8E5B13",
"|+	c #8F6510",
"1+	c #E0BB46",
"2+	c #FEE275",
"3+	c #A68732",
"4+	c #AD8622",
"5+	c #967420",
"6+	c #63563D",
"7+	c #DFDFDF",
"8+	c #E1DFDC",
"9+	c #635742",
"0+	c #51360B",
"a+	c #8D5A14",
"b+	c #985F17",
"c+	c #74490D",
"d+	c #905D14",
"e+	c #996316",
"f+	c #643F0D",
"g+	c #523304",
"h+	c #4D3106",
"i+	c #574933",
"j+	c #8D867B",
"k+	c #B7B4B0",
"l+	c #D6D6D5",
"m+	c #E1E0DE",
"n+	c #D9D7D4",
"o+	c #C8C6C4",
"p+	c #9C958A",
"q+	c #77603A",
"r+	c #764B0D",
"s+	c #86590D",
"t+	c #B58E28",
"u+	c #F9DA67",
"v+	c #EED77F",
"w+	c #8E702A",
"x+	c #C4A54E",
"y+	c #CAAF64",
"z+	c #8B7851",
"A+	c #BCBAB7",
"B+	c #857D6F",
"C+	c #48320B",
"D+	c #794E13",
"E+	c #925B17",
"F+	c #8C5616",
"G+	c #633E0C",
"H+	c #825212",
"I+	c #976216",
"J+	c #5E3D0A",
"K+	c #2D1C01",
"L+	c #4F3A18",
"M+	c #948C7F",
"N+	c #E0DFDD",
"O+	c #B6A17A",
"P+	c #956F1A",
"Q+	c #E0BE53",
"R+	c #FFEB9B",
"S+	c #B7A15F",
"T+	c #725720",
"U+	c #CCAC52",
"V+	c #CFB777",
"W+	c #927D4F",
"X+	c #99958D",
"Y+	c #BBB7B1",
"Z+	c #3F3118",
"`+	c #5F3F0D",
" @	c #8A5514",
".@	c #8F5916",
"+@	c #69410D",
"@@	c #71470E",
"#@	c #956016",
"$@	c #65400D",
"%@	c #160C00",
"&@	c #534836",
"*@	c #C6C1B9",
"=@	c #CAB16F",
"-@	c #CDA83B",
";@	c #F9E088",
">@	c #F0DE9F",
",@	c #55441A",
"'@	c #755A1B",
")@	c #A37F24",
"!@	c #9E8349",
"~@	c #806118",
"{@	c #726A5B",
"]@	c #695E4B",
"^@	c #48320C",
"/@	c #75490E",
"(@	c #8D5614",
"_@	c #7A4B11",
":@	c #69420B",
"<@	c #754C0F",
"[@	c #241604",
"}@	c #6C6354",
"|@	c #DBD8D3",
"1@	c #E0CE9F",
"2@	c #C29E39",
"3@	c #E4C56A",
"4@	c #FFF1BB",
"5@	c #988343",
"6@	c #241703",
"7@	c #AC8A30",
"8@	c #8E6C1D",
"9@	c #A0854A",
"0@	c #7D5D11",
"a@	c #4F4534",
"b@	c #A7A39E",
"c@	c #423111",
"d@	c #5A3B0B",
"e@	c #885413",
"f@	c #855214",
"g@	c #5E3B0A",
"h@	c #875612",
"i@	c #875513",
"j@	c #332006",
"k@	c #746E65",
"l@	c #DBCEAD",
"m@	c #CDAF5A",
"n@	c #DDC274",
"o@	c #F8EFCE",
"p@	c #CDBA73",
"q@	c #302307",
"r@	c #5F4916",
"s@	c #BE9930",
"t@	c #926E1D",
"u@	c #957529",
"v@	c #58400D",
"w@	c #342B1C",
"x@	c #D0CFCF",
"y@	c #615544",
"z@	c #473006",
"A@	c #774B0F",
"B@	c #8F5816",
"C@	c #623C0C",
"D@	c #70470E",
"E@	c #8E5A15",
"F@	c #4C2E06",
"G@	c #675E51",
"H@	c #E7E5E0",
"I@	c #EAD289",
"J@	c #F8F1DA",
"K@	c #EFE2A5",
"L@	c #59471A",
"M@	c #45310A",
"N@	c #BE9C3B",
"O@	c #896A1C",
"P@	c #9F7C2D",
"Q@	c #92712A",
"R@	c #745717",
"S@	c #312714",
"T@	c #C4C3C3",
"U@	c #B0ABA2",
"V@	c #4E3B19",
"W@	c #4E340B",
"X@	c #865212",
"Y@	c #794A11",
"Z@	c #51330A",
"`@	c #8D5915",
" #	c #6B430C",
".#	c #5A4E3B",
"+#	c #DCDAD4",
"@#	c #C7BCA4",
"##	c #D0AD45",
"$#	c #FAEEC7",
"%#	c #FFFDE8",
"&#	c #A89350",
"*#	c #6C551E",
"=#	c #CCAC49",
"-#	c #AA8B31",
";#	c #72561A",
">#	c #A17F30",
",#	c #85641B",
"'#	c #5F491C",
")#	c #342916",
"!#	c #C5C4C3",
"~#	c #736A5A",
"{#	c #60491B",
"]#	c #5F3D0B",
"^#	c #895413",
"/#	c #4E300A",
"(#	c #704710",
"_#	c #865412",
":#	c #554022",
"<#	c #C9C5BF",
"[#	c #BEAD80",
"}#	c #ECD899",
"|#	c #FFFEF6",
"1#	c #EEE5C6",
"2#	c #B49F6C",
"3#	c #AD9145",
"4#	c #B2902D",
"5#	c #5B420B",
"6#	c #896A27",
"7#	c #8B6A1B",
"8#	c #5A4515",
"9#	c #372C19",
"0#	c #C9C8C8",
"a#	c #CCCCCB",
"b#	c #55472D",
"c#	c #755B28",
"d#	c #6E460D",
"e#	c #734810",
"f#	c #482E08",
"g#	c #5D3B0D",
"h#	c #979087",
"i#	c #CCCBCA",
"j#	c #7B6839",
"k#	c #F0D77B",
"l#	c #FFFBE9",
"m#	c #B99F55",
"n#	c #624810",
"o#	c #886617",
"p#	c #5F440A",
"q#	c #6B4E11",
"r#	c #836219",
"s#	c #755613",
"t#	c #4E3910",
"u#	c #4F3C14",
"v#	c #423827",
"w#	c #D8D8D8",
"x#	c #979592",
"y#	c #745F34",
"z#	c #81652E",
"A#	c #4C2F09",
"B#	c #67410C",
"C#	c #87560F",
"D#	c #645238",
"E#	c #C3C1BF",
"F#	c #514739",
"G#	c #67521D",
"H#	c #F8E596",
"I#	c #FCF5DA",
"J#	c #8F732F",
"K#	c #846D38",
"L#	c #D6B865",
"M#	c #92701B",
"N#	c #5E4411",
"O#	c #987B3B",
"P#	c #9A782A",
"Q#	c #6D5113",
"R#	c #48360E",
"S#	c #565046",
"T#	c #6F685E",
"U#	c #997D44",
"V#	c #7D622E",
"W#	c #643F0C",
"X#	c #331F04",
"Y#	c #7A4C0E",
"Z#	c #6B460F",
"`#	c #A49E94",
" $	c #A6A095",
".$	c #65573D",
"+$	c #876C35",
"@$	c #7B6329",
"#$	c #F7E491",
"$$	c #FBEFC0",
"%$	c #947426",
"&$	c #A88C42",
"*$	c #E1C772",
"=$	c #937220",
"-$	c #523C0F",
";$	c #83682D",
">$	c #7C5C18",
",$	c #5D4510",
"'$	c #3C2C0B",
")$	c #797571",
"!$	c #E0E0E0",
"~$	c #534A3A",
"{$	c #997C42",
"]$	c #8C6F38",
"^$	c #3F2806",
"/$	c #342104",
"($	c #7A4F0D",
"_$	c #5E4B2B",
":$	c #DCDAD8",
"<$	c #BDB8AF",
"[$	c #6E6452",
"}$	c #715D36",
"|$	c #BB9D5E",
"1$	c #B29352",
"2$	c #846A2B",
"3$	c #F3DE81",
"4$	c #F8E79C",
"5$	c #B99738",
"6$	c #8B6C1E",
"7$	c #AD8B30",
"8$	c #826219",
"9$	c #795D1B",
"0$	c #7A5E22",
"a$	c #6C4E0B",
"b$	c #4F3D12",
"c$	c #32260F",
"d$	c #ABAAA9",
"e$	c #D2D1D0",
"f$	c #463B27",
"g$	c #7D6531",
"h$	c #A48546",
"i$	c #39290D",
"j$	c #392305",
"k$	c #724B09",
"l$	c #7F7564",
"m$	c #B2ACA1",
"n$	c #71644D",
"o$	c #6B5937",
"p$	c #9F8854",
"q$	c #D2B679",
"r$	c #D5B675",
"s$	c #BB9B58",
"t$	c #83682F",
"u$	c #DDC975",
"v$	c #FBE487",
"w$	c #D1AE48",
"x$	c #C1A03E",
"y$	c #997723",
"z$	c #8D6A17",
"A$	c #7D5F1B",
"B$	c #72571D",
"C$	c #544012",
"D$	c #463610",
"E$	c #3F382C",
"F$	c #DCDBDB",
"G$	c #CCCBCB",
"H$	c #4C3F26",
"I$	c #635026",
"J$	c #9E8144",
"K$	c #856A35",
"L$	c #3D2D0F",
"M$	c #392404",
"N$	c #8F887E",
"O$	c #D5D2CE",
"P$	c #A49C8F",
"Q$	c #746447",
"R$	c #725A2B",
"S$	c #A4884C",
"T$	c #CFB479",
"U$	c #E5CF9B",
"V$	c #E1CA95",
"W$	c #CBAB66",
"X$	c #BB9A56",
"Y$	c #8D7137",
"Z$	c #A89047",
"`$	c #FDE072",
" %	c #E5C04F",
".%	c #B49133",
"+%	c #B49031",
"@%	c #B7922C",
"#%	c #664E17",
"$%	c #574215",
"%%	c #513E13",
"&%	c #41310F",
"*%	c #807D79",
"=%	c #D0CFCE",
"-%	c #55472E",
";%	c #5D4D2B",
">%	c #6C5628",
",%	c #B3934F",
"'%	c #AD8E4D",
")%	c #715A2D",
"!%	c #53452B",
"~%	c #685D49",
"{%	c #736B5D",
"]%	c #827C72",
"^%	c #878075",
"/%	c #797165",
"(%	c #706551",
"_%	c #604E2F",
":%	c #735926",
"<%	c #A3864A",
"[%	c #CBAD70",
"}%	c #E0C995",
"|%	c #ECDFBD",
"1%	c #DEC998",
"2%	c #CCAC68",
"3%	c #C2A059",
"4%	c #B1914D",
"5%	c #7E6430",
"6%	c #594111",
"7%	c #8E6F1D",
"8%	c #C59B28",
"9%	c #DAAF34",
"0%	c #DAAF33",
"a%	c #7A5E17",
"b%	c #543D0E",
"c%	c #46350E",
"d%	c #604914",
"e%	c #493D25",
"f%	c #D7D7D6",
"g%	c #5F5239",
"h%	c #625230",
"i%	c #513E14",
"j%	c #866D38",
"k%	c #BA9A57",
"l%	c #C7A55D",
"m%	c #BB9B56",
"n%	c #A98D50",
"o%	c #917843",
"p%	c #806838",
"q%	c #856B36",
"r%	c #92763D",
"s%	c #A4874A",
"t%	c #B89A5B",
"u%	c #CFB57E",
"v%	c #E6D6B3",
"w%	c #F1E8D1",
"x%	c #E9DBB9",
"y%	c #D7BD83",
"z%	c #C9A760",
"A%	c #C7A45B",
"B%	c #BD9C55",
"C%	c #745611",
"D%	c #84610B",
"E%	c #70520E",
"F%	c #70500C",
"G%	c #7B590A",
"H%	c #5A420A",
"I%	c #342507",
"J%	c #4B3910",
"K%	c #5F4813",
"L%	c #5E4715",
"M%	c #7A7671",
"N%	c #827762",
"O%	c #89784E",
"P%	c #4E3E1F",
"Q%	c #665226",
"R%	c #806732",
"S%	c #9C8047",
"T%	c #C09F58",
"U%	c #CAA962",
"V%	c #CDAD69",
"W%	c #D2B474",
"X%	c #DDC796",
"Y%	c #E6D5AC",
"Z%	c #EEE1C1",
"`%	c #EDE0BC",
" &	c #D3BD8A",
".&	c #A6894D",
"+&	c #987B3C",
"@&	c #B3934E",
"#&	c #C8A65C",
"$&	c #AF8F4C",
"%&	c #80631F",
"&&	c #DAB239",
"*&	c #EDD074",
"=&	c #EACD6B",
"-&	c #DBB748",
";&	c #A07D22",
">&	c #463107",
",&	c #3F2E0B",
"'&	c #544013",
")&	c #745A1F",
"!&	c #453B29",
"~&	c #CACACA",
"{&	c #9D9484",
"]&	c #988A66",
"^&	c #4F432C",
"/&	c #423215",
"(&	c #604818",
"_&	c #8F7237",
":&	c #B0904C",
"<&	c #B99952",
"[&	c #BF9E57",
"}&	c #C5A45F",
"|&	c #CAAA6A",
"1&	c #D0B478",
"2&	c #D8BF84",
"3&	c #D2B67A",
"4&	c #CDAD68",
"5&	c #CBA960",
"6&	c #B08F49",
"7&	c #73571A",
"8&	c #7C5F1C",
"9&	c #A48339",
"0&	c #C4A25A",
"a&	c #92763C",
"b&	c #A58428",
"c&	c #FDE594",
"d&	c #F4DB83",
"e&	c #BA9C40",
"f&	c #DABA51",
"g&	c #F5D25B",
"h&	c #9F7D22",
"i&	c #4F390A",
"j&	c #765A1D",
"k&	c #413214",
"l&	c #827F7D",
"m&	c #948C7B",
"n&	c #635435",
"o&	c #201604",
"p&	c #3E2B07",
"q&	c #5E4717",
"r&	c #927433",
"s&	c #A48541",
"t&	c #A78947",
"u&	c #B0914F",
"v&	c #BE9D58",
"w&	c #C4A25B",
"x&	c #C3A159",
"y&	c #A78745",
"z&	c #BF9D54",
"A&	c #BE9C4F",
"B&	c #A3833D",
"C&	c #957636",
"D&	c #715310",
"E&	c #5C4208",
"F&	c #916F22",
"G&	c #BD9B52",
"H&	c #8A6E31",
"I&	c #D1B048",
"J&	c #FDE282",
"K&	c #9D7D24",
"L&	c #281901",
"M&	c #554013",
"N&	c #D5B850",
"O&	c #E0BF4D",
"P&	c #443109",
"Q&	c #4E4A45",
"R&	c #BDB8AE",
"S&	c #796437",
"T&	c #4F3B11",
"U&	c #402E0B",
"V&	c #4F3B14",
"W&	c #775B21",
"X&	c #7B5F22",
"Y&	c #886925",
"Z&	c #93732D",
"`&	c #B1914F",
" *	c #BF9D56",
".*	c #A48443",
"+*	c #9E7F3A",
"@*	c #7D6020",
"#*	c #63480E",
"$*	c #6F5216",
"%*	c #86651C",
"&*	c #7E5E1C",
"**	c #B29149",
"=*	c #C6A358",
"-*	c #846928",
";*	c #DEBD4F",
">*	c #AE8A29",
",*	c #664E1C",
"'*	c #2B1B01",
")*	c #8D7227",
"!*	c #F2D15A",
"~*	c #5F470D",
"{*	c #3B352D",
"]*	c #C9C8C7",
"^*	c #DFDEDC",
"/*	c #70603F",
"(*	c #87681E",
"_*	c #5F4815",
":*	c #523D18",
"<*	c #7A5E23",
"[*	c #795B14",
"}*	c #775812",
"|*	c #755615",
"1*	c #9A7C41",
"2*	c #9E7E3A",
"3*	c #7A5A14",
"4*	c #765917",
"5*	c #80642A",
"6*	c #8D6C22",
"7*	c #816220",
"8*	c #927332",
"9*	c #936F1F",
"0*	c #B1904A",
"a*	c #AD8D49",
"b*	c #624914",
"c*	c #C19D32",
"d*	c #F5CF51",
"e*	c #C5A13B",
"f*	c #A1853D",
"g*	c #3F2A06",
"h*	c #675119",
"i*	c #EDCD57",
"j*	c #766028",
"k*	c #BAB7B3",
"l*	c #A29C91",
"m*	c #675019",
"n*	c #9C7A23",
"o*	c #72571A",
"p*	c #664C16",
"q*	c #604816",
"r*	c #5E4611",
"s*	c #5B410C",
"t*	c #6A5222",
"u*	c #836521",
"v*	c #9D7924",
"w*	c #8A6B28",
"x*	c #B39351",
"y*	c #A78743",
"z*	c #80621E",
"A*	c #B29146",
"B*	c #9E7821",
"C*	c #967731",
"D*	c #987830",
"E*	c #634913",
"F*	c #352402",
"G*	c #705718",
"H*	c #E6C250",
"I*	c #A98526",
"J*	c #7B5B12",
"K*	c #4D380B",
"L*	c #5F4913",
"M*	c #DDBC4A",
"N*	c #8D7C4F",
"O*	c #726B5E",
"P*	c #745A1C",
"Q*	c #9E7C25",
"R*	c #93711C",
"S*	c #705313",
"T*	c #694D12",
"U*	c #533D13",
"V*	c #685125",
"W*	c #674D15",
"X*	c #6B5016",
"Y*	c #9A7D40",
"Z*	c #AF8E45",
"`*	c #9F7B2C",
" =	c #997A34",
".=	c #AC8A3D",
"+=	c #9F781E",
"@=	c #956D10",
"#=	c #8E690F",
"$=	c #A98623",
"%=	c #9B7D2B",
"&=	c #332408",
"*=	c #8C6C1F",
"==	c #9C7A25",
"-=	c #755A19",
";=	c #271C06",
">=	c #7E621A",
",=	c #C7A334",
"'=	c #8F8165",
")=	c #DBDADA",
"!=	c #5F5646",
"~=	c #7D5F17",
"{=	c #A27D1F",
"]=	c #A48023",
"^=	c #906E1C",
"/=	c #70510D",
"(=	c #60450F",
"_=	c #674B13",
":=	c #5D4415",
"<=	c #785B22",
"[=	c #846524",
"}=	c #906A17",
"|=	c #9C7618",
"1=	c #A67F19",
"2=	c #C69E29",
"3=	c #E3C156",
"4=	c #F4D66A",
"5=	c #FFE781",
"6=	c #E6C85D",
"7=	c #3C2C0C",
"8=	c #322308",
"9=	c #140D04",
"0=	c #2D1D02",
"a=	c #B6912C",
"b=	c #AC8823",
"c=	c #B4AB9C",
"d=	c #C7C5C3",
"e=	c #4F4227",
"f=	c #745710",
"g=	c #8F6D15",
"h=	c #9C7A20",
"i=	c #A68226",
"j=	c #A9862C",
"k=	c #B99431",
"l=	c #B29032",
"m=	c #A3842E",
"n=	c #C2A038",
"o=	c #E2BF4B",
"p=	c #EFD061",
"q=	c #FADF77",
"r=	c #FFEEA1",
"s=	c #FEF5CA",
"t=	c #FFF1AD",
"u=	c #FDE686",
"v=	c #E1C055",
"w=	c #513B0E",
"x=	c #211301",
"y=	c #2A1A02",
"z=	c #7E6018",
"A=	c #D9AF32",
"B=	c #9B813F",
"C=	c #E0DFDC",
"D=	c #AEACA9",
"E=	c #463E32",
"F=	c #503C0D",
"G=	c #806111",
"H=	c #876613",
"I=	c #906F1E",
"J=	c #B49237",
"K=	c #DAB950",
"L=	c #F2D162",
"M=	c #FDE37F",
"N=	c #FFEE9B",
"O=	c #FEEC9C",
"P=	c #FDE893",
"Q=	c #FCE79E",
"R=	c #F3E5B8",
"S=	c #D4BB6C",
"T=	c #B69538",
"U=	c #89691C",
"V=	c #4D3506",
"W=	c #362202",
"X=	c #4A3409",
"Y=	c #8F7125",
"Z=	c #D9B541",
"`=	c #B99329",
" -	c #C5BCA9",
".-	c #D3D2D1",
"+-	c #5C5853",
"@-	c #302308",
"#-	c #674C0E",
"$-	c #6E4F0E",
"%-	c #573B08",
"&-	c #523A0D",
"*-	c #68501F",
"=-	c #92752E",
"--	c #B2913A",
";-	c #B69539",
">-	c #B89537",
",-	c #B18E30",
"'-	c #9D8242",
")-	c #674C14",
"!-	c #4C3407",
"~-	c #452E04",
"{-	c #533A07",
"]-	c #7F6017",
"^-	c #C19F38",
"/-	c #E0BC46",
"(-	c #A5842E",
"_-	c #C4B696",
":-	c #757370",
"<-	c #332B20",
"[-	c #45330F",
"}-	c #5C4311",
"|-	c #543B09",
"1-	c #452E05",
"2-	c #3B2604",
"3-	c #422C06",
"4-	c #513908",
"5-	c #523806",
"6-	c #4F3607",
"7-	c #4D3A15",
"8-	c #442F09",
"9-	c #644911",
"0-	c #987721",
"a-	c #C29E35",
"b-	c #CFAD42",
"c-	c #C8AC57",
"d-	c #B9A36F",
"e-	c #C9BFA7",
"f-	c #D2D1CE",
"g-	c #A7A39D",
"h-	c #746D64",
"i-	c #4F4228",
"j-	c #5E4714",
"k-	c #87681C",
"l-	c #B39232",
"m-	c #B3922F",
"n-	c #B19131",
"o-	c #B49230",
"p-	c #B69536",
"q-	c #C2A13B",
"r-	c #C8A438",
"s-	c #BF9E3D",
"t-	c #AE9143",
"u-	c #B09D70",
"v-	c #D7D2C7",
"w-	c #A29D98",
"x-	c #9B927F",
"y-	c #B9A87A",
"z-	c #C1AB71",
"A-	c #C4B075",
"B-	c #BCA973",
"C-	c #B7A470",
"D-	c #A7966A",
"E-	c #988865",
"F-	c #B2A894",
"G-	c #D8D5D0",
"                                          . + @ # $ % & * =                     ",
"                                    - ; > , ' ) ! ~ { ] ^ / ( _ :               ",
"                                  < [ } | 1 2 3 4 5 6 7 8 9 0 a b c             ",
"                            d e f g h i j k l m n o p q r s t u v w x           ",
"                          y z A B C D E F G H m I J K L M N O P Q R S           ",
"                      T U V W X Y Z `  ...+.@.#.$.%.&.*.=.%.-.;.>.,.'.).        ",
"                    !.~.{.].^./.(._.:.<.[.}.|.1.2.3.4.5.6.7.8.9.0.a.b.c.        ",
"                  d.e.f.g.h.i.j.k.l.m.n.o.p.q.r.s.m t.u.v.w.x.y.z.A.B.C.D.      ",
"                E.F.G.H.I.J.K.L.M.N.O.P.Q.R.S.T.U.V.W.X.v.Y.Z.`. +.+++@+#+      ",
"              $+%+&+*+=+-+;+>+,+'+)+!+~+{+]+^+/+(+_+:+<+[+}+|+1+2+3+4+5+6+7+    ",
"            8+9+0+a+b++.c+d+e+f+g+h+i+j+k+l+  m+n+o+p+q+r+s+t+u+v+w+x+y+z+A+    ",
"            B+C+D+E+F+G+H+I+J+K+L+M+N+                  O+P+Q+R+S+T+U+V+W+X+    ",
"          Y+Z+`+ @.@+@@@#@$@%@&@*@                      =@-@;@>@,@'@)@!@~@{@    ",
"          ]@^@/@(@_@:@>+<@[@}@|@                      1@2@3@4@5@6@7@8@9@0@a@    ",
"        b@c@d@e@f@g@h@i@j@k@                        l@m@n@o@p@q@r@s@t@u@v@w@x@  ",
"        y@z@A@B@C@D@E@F@G@                        H@( I@J@K@L@M@N@O@P@Q@R@S@T@  ",
"      U@V@W@X@Y@Z@`@ #.#+#                        @###$#%#&#*#=#-#;#>#,#'#)#!#  ",
"      ~#{#]#^#/#(#_#:#<#                          [#}#|#1#2#3#4#5#6#7#@+8#9#0#  ",
"    a#b#c#d#e#f#E@g#h#                          i#j#k#l#m#n#o#p#q#r#s#t#u#v#w#  ",
"    x#y#z#A@A#B#C#D#N+                        E#F#G#H#I#J#K#L#M#N#O#P#Q#R#S#    ",
"    T#U#V#W#X#Y#Z#`#                         $.$+$@$#$$$%$&$*$=$-$;$>$,$'$)$    ",
"  !$~${$]$^$/$($_$:$                    <$[$}$|$1$2$3$4$5$6$7$8$9$0$a$b$c$d$    ",
"  e$f$g$h$i$j$k$l$                  m$n$o$p$q$r$s$t$u$v$w$x$y$z$A$B$C$D$E$F$    ",
"  G$H$I$J$K$L$M$N$            O$P$Q$R$S$T$U$V$W$X$Y$Z$`$ %.%+%@%#%$%%%&%*%      ",
"  =%-%;%>%,%'%)%!%~%{%]%^%/%(%_%:%<%[%}%|%1%2%3%4%5%6%7%8%9%0%a%b%c%d%e%G$      ",
"  f%g%h%i%j%k%l%m%n%o%p%q%r%s%t%u%v%w%x%y%z%A%B%t$C%D%E%F%G%H%I%J%K%L%M%        ",
"    N%O%P%Q%R%S%T%l%U%W$V%W%X%Y%Z%`% &.&+&@&#&$&%&&&*&=&-&;&>&,&'&)&!&~&        ",
"    {&]&^&/&(&_&:&<&[&}&|&1&2&3&4&5&6&7&8&9&0&a&b&c&d&e&f&g&h&i&j&k&l&          ",
"    m&n&o&p&q&r&s&t&u&v&w&x&y&z&A&B&C&D&E&F&G&H&I&J&K&L&M&N&O&n#P&Q&            ",
"    R&S&T&U&V&W&X&Y&Z&`& *.*W&+*@*#*$*%*&***=*-*;*g&>*,*'*)*!*~*{*]*            ",
"    ^*/*(*_*:*<*[*}*|*1*2*3*4*5*6*7*8*9*0*3%a*b*c*d*e*f*g*h*i*j*k*              ",
"      l*m*n*o*p*q*r*s*t*u*v*w*x*y*z*A*B*C*D*E*F*G*H*I*J*K*L*M*N*                ",
"        O*P*Q*R*S*T*U*V*W*X*Y*Z*`* =.=+=@=#=$=%=&=*===-=;=>=,='=                ",
"        )=!=~={=]=^=/=(=_=:=<=[=}=|=1=2=3=4=5=6=h*7=8=9=0=a=b=c=                ",
"          d=e=f=g=h=i=j=k=l=m=n=o=p=q=r=s=t=u=v=n*w=x=y=z=A=B=C=                ",
"            D=E=F=G=H=I=J=K=L=M=N=O=P=Q=R=S=T=U=V=W=X=Y=Z=`= -                  ",
"              .-+-@-#-$-%-&-*-=---;->-,-'-)-!-~-{-]-^-/-(-_-                    ",
"                  :-<-[-}-|-1-2-3-4-5-6-7-8-9-0-a-b-c-d-e-                      ",
"                    f-g-h-i-j-k-l-m-n-o-p-q-r-s-t-u-v-                          ",
"                          x@w-x-y-z-A-B-C-D-E-F-G-                              "};
