/* XPM */
static char * collectible_3_xpm[] = {
"40 40 389 2",
"  	c None",
". 	c #595556",
"+ 	c #7E7778",
"@ 	c #A29999",
"# 	c #A69C9C",
"$ 	c #A39999",
"% 	c #989090",
"& 	c #857D7D",
"* 	c #AEADAD",
"= 	c #9D9797",
"- 	c #BBB1B1",
"; 	c #ABA1A1",
"> 	c #867E7F",
", 	c #C2B6B6",
"' 	c #E3D5D5",
") 	c #E1D4D4",
"! 	c #DFD2D2",
"~ 	c #D8CCCC",
"{ 	c #C7BCBC",
"] 	c #BFBEBE",
"^ 	c #B5ADAD",
"/ 	c #C2B8B8",
"( 	c #A39B9B",
"_ 	c #8B8384",
": 	c #918888",
"< 	c #CDC1C1",
"[ 	c #E2D5D5",
"} 	c #E4D7D7",
"| 	c #CBBFBF",
"1 	c #968D8D",
"2 	c #BBBBBB",
"3 	c #A59F9F",
"4 	c #9B9393",
"5 	c #B6ACAC",
"6 	c #D2C6C6",
"7 	c #D0C4C4",
"8 	c #D0C5C5",
"9 	c #DBCFCF",
"0 	c #DACECE",
"a 	c #D3C7C7",
"b 	c #B4A9A9",
"c 	c #A19797",
"d 	c #8E8E8E",
"e 	c #7C797A",
"f 	c #C4B9B9",
"g 	c #E1D3D3",
"h 	c #E6D8D8",
"i 	c #CBC0C0",
"j 	c #9D9595",
"k 	c #E3D6D6",
"l 	c #A59C9C",
"m 	c #D9CDCD",
"n 	c #BBB0B1",
"o 	c #BCB2B2",
"p 	c #A59B9C",
"q 	c #8E8686",
"r 	c #858585",
"s 	c #747373",
"t 	c #8D8686",
"u 	c #E4D6D6",
"v 	c #CFC5C5",
"w 	c #948D8D",
"x 	c #CCC0C0",
"y 	c #D7CACB",
"z 	c #887F80",
"A 	c #D1C5C5",
"B 	c #AFA4A4",
"C 	c #BAAFB0",
"D 	c #CABEBE",
"E 	c #8C8384",
"F 	c #989898",
"G 	c #918C8D",
"H 	c #D7CACA",
"I 	c #DDD1D1",
"J 	c #9F9898",
"K 	c #A79D9D",
"L 	c #AFA5A5",
"M 	c #DED1D1",
"N 	c #9D9494",
"O 	c #B8ADAD",
"P 	c #565151",
"Q 	c #C1C1C1",
"R 	c #BDBDBD",
"S 	c #B1AAAA",
"T 	c #BEB5B5",
"U 	c #AEA5A5",
"V 	c #9C9293",
"W 	c #D7CBCB",
"X 	c #9E9595",
"Y 	c #7F7878",
"Z 	c #EFEFEF",
"` 	c #DBDBDB",
" .	c #BCB3B3",
"..	c #A79F9F",
"+.	c #D4C8C8",
"@.	c #9A9191",
"#.	c #E0D3D3",
"$.	c #C2B7B7",
"%.	c #A9A0A0",
"&.	c #DDDCDC",
"*.	c #C9C8C8",
"=.	c #BFB5B5",
"-.	c #9D9596",
";.	c #DCCFCF",
">.	c #DDD0D0",
",.	c #B9AEAF",
"'.	c #B6ADAD",
").	c #BCBCBC",
"!.	c #9F9C9C",
"~.	c #868181",
"{.	c #B7ADAD",
"].	c #CAC0C0",
"^.	c #B1A8A8",
"/.	c #DCD0D0",
"(.	c #B3A9A9",
"_.	c #BAB0B1",
":.	c #7E7B7B",
"<.	c #E6E6E6",
"[.	c #B6B0B0",
"}.	c #B8AEAE",
"|.	c #B1A9A9",
"1.	c #A39A9A",
"2.	c #9B9494",
"3.	c #9A9292",
"4.	c #FBFBFB",
"5.	c #F2F2F2",
"6.	c #B9B2B2",
"7.	c #C9BEBE",
"8.	c #BDB3B3",
"9.	c #BCB4B4",
"0.	c #E5D7D7",
"a.	c #D6CACA",
"b.	c #E3D6D5",
"c.	c #AEA4A4",
"d.	c #A89F9F",
"e.	c #B6ACAD",
"f.	c #ADA4A5",
"g.	c #F8F8F8",
"h.	c #BAB3B3",
"i.	c #BDB2B3",
"j.	c #D5C9C9",
"k.	c #BFB4B4",
"l.	c #A9A9AE",
"m.	c #A7A4A8",
"n.	c #D8CBCB",
"o.	c #BEB8BB",
"p.	c #ADAAAE",
"q.	c #9D9495",
"r.	c #AFA6A6",
"s.	c #E7E7E7",
"t.	c #B7B1B1",
"u.	c #CABFBF",
"v.	c #D4C8C7",
"w.	c #7D95A3",
"x.	c #387FA4",
"y.	c #819EAD",
"z.	c #90959B",
"A.	c #B0B2B8",
"B.	c #3F7E9E",
"C.	c #7699AC",
"D.	c #979BA1",
"E.	c #D9CCCC",
"F.	c #A09898",
"G.	c #BEB3B3",
"H.	c #ACA3A3",
"I.	c #CACBCB",
"J.	c #AAA5A5",
"K.	c #C9BDBD",
"L.	c #E5D8D7",
"M.	c #CCC3C3",
"N.	c #3C7D9F",
"O.	c #3590BF",
"P.	c #86BAD4",
"Q.	c #648CA2",
"R.	c #D3C6C6",
"S.	c #E3D4D3",
"T.	c #7392A4",
"U.	c #2987B8",
"V.	c #75B1CF",
"W.	c #6D92A7",
"X.	c #A29B9B",
"Y.	c #C9C9C9",
"Z.	c #A8A5A5",
"`.	c #C0B5B5",
" +	c #CEC3C3",
".+	c #407794",
"++	c #2487BB",
"@+	c #2889BB",
"#+	c #6B8FA3",
"$+	c #D9CBCB",
"%+	c #E3D5D4",
"&+	c #7E919E",
"*+	c #227EAD",
"=+	c #2888B9",
"-+	c #7595A7",
";+	c #D0C3C2",
">+	c #BBB1B2",
",+	c #BAB1B1",
"'+	c #D8D8D8",
")+	c #C5C4C4",
"!+	c #A9A1A1",
"~+	c #E1D4D3",
"{+	c #92969D",
"]+	c #3F7490",
"^+	c #5A859D",
"/+	c #B4B0B3",
"(+	c #E1D5D5",
"_+	c #C6BDBE",
":+	c #638091",
"<+	c #6A8A9C",
"[+	c #C0B9BB",
"}+	c #C3B9B9",
"|+	c #9A9494",
"1+	c #AFAEAE",
"2+	c #8A8484",
"3+	c #DACDCD",
"4+	c #E0D2D2",
"5+	c #DACECF",
"6+	c #B2AAAA",
"7+	c #947473",
"8+	c #947E7D",
"9+	c #B3AAAA",
"0+	c #DDCFCE",
"a+	c #DBCDCD",
"b+	c #E2D5D6",
"c+	c #AFA7A7",
"d+	c #E4E4E4",
"e+	c #C0BFBF",
"f+	c #E2D4D4",
"g+	c #8C8281",
"h+	c #694E4D",
"i+	c #8E3432",
"j+	c #854342",
"k+	c #6C5757",
"l+	c #908585",
"m+	c #D5C8C9",
"n+	c #F3F3F3",
"o+	c #BEBCBC",
"p+	c #E2D6D6",
"q+	c #975F5D",
"r+	c #7F3432",
"s+	c #972D2B",
"t+	c #A52D2A",
"u+	c #A32C2A",
"v+	c #923432",
"w+	c #833230",
"x+	c #926D6D",
"y+	c #D9CECE",
"z+	c #CCC2C2",
"A+	c #B5B3B3",
"B+	c #A8A0A0",
"C+	c #D5C8C8",
"D+	c #E3D7D7",
"E+	c #A08C8C",
"F+	c #843E3D",
"G+	c #903C3A",
"H+	c #923C3B",
"I+	c #923F3D",
"J+	c #924442",
"K+	c #934B4A",
"L+	c #965A59",
"M+	c #957675",
"N+	c #C8BDBD",
"O+	c #A1A0A0",
"P+	c #8B8687",
"Q+	c #A69D9D",
"R+	c #C0B4B4",
"S+	c #C1B4B4",
"T+	c #C2B5B5",
"U+	c #C3B7B7",
"V+	c #C6BABA",
"W+	c #C7BDBD",
"X+	c #C4BBBB",
"Y+	c #B5ACAC",
"Z+	c #898383",
"`+	c #868686",
" @	c #878787",
".@	c #818080",
"+@	c #A99F9F",
"@@	c #AAA0A1",
"#@	c #ACA2A2",
"$@	c #ADA4A4",
"%@	c #B0A6A6",
"&@	c #B9AFAF",
"*@	c #C5BABA",
"=@	c #8B8484",
"-@	c #808080",
";@	c #7F7F7F",
">@	c #A9A3A3",
",@	c #CCC1C1",
"'@	c #CCC0C1",
")@	c #C1B7B7",
"!@	c #BDB2B2",
"~@	c #A0A0A0",
"{@	c #939393",
"]@	c #918F8F",
"^@	c #C4BABA",
"/@	c #BAB0B0",
"(@	c #BAAFAF",
"_@	c #A49A9A",
":@	c #C6BBBC",
"<@	c #A29A9A",
"[@	c #E1E1E1",
"}@	c #CCCDCD",
"|@	c #B3ADAD",
"1@	c #C6BBBB",
"2@	c #E5D8D8",
"3@	c #B9B0B0",
"4@	c #ECECEC",
"5@	c #DEDEDE",
"6@	c #C2B9B9",
"7@	c #C5BBBB",
"8@	c #A79E9E",
"9@	c #ABA3A3",
"0@	c #B8AFAF",
"a@	c #B3ABAB",
"b@	c #C8C8C8",
"c@	c #A7A0A0",
"d@	c #ACA5A6",
"e@	c #C3B8B8",
"f@	c #C0B5B6",
"g@	c #AEA4A5",
"h@	c #CBC0C1",
"i@	c #696666",
"j@	c #7E7D7D",
"k@	c #7F7E7E",
"l@	c #86807B",
"m@	c #9F9895",
"n@	c #CEC2C2",
"o@	c #C3B9B7",
"p@	c #908B84",
"q@	c #848273",
"r@	c #7B7673",
"s@	c #898989",
"t@	c #8C8B8B",
"u@	c #A6A0A0",
"v@	c #74725F",
"w@	c #6F6E4F",
"x@	c #727157",
"y@	c #76755C",
"z@	c #767559",
"A@	c #787855",
"B@	c #838266",
"C@	c #C3B9B8",
"D@	c #9C9494",
"E@	c #B5B5B5",
"F@	c #979797",
"G@	c #A49E9E",
"H@	c #DDD0D1",
"I@	c #918B7F",
"J@	c #7B7B55",
"K@	c #81815A",
"L@	c #7F8058",
"M@	c #818159",
"N@	c #7F7F59",
"O@	c #8D8B77",
"P@	c #C5BBBC",
"Q@	c #E0E0E0",
"R@	c #CACACA",
"S@	c #E4D6D7",
"T@	c #B8AEAB",
"U@	c #6F6E52",
"V@	c #81815D",
"W@	c #7F7F69",
"X@	c #767756",
"Y@	c #7F7E66",
"Z@	c #AEA6A3",
"`@	c #908A8A",
" #	c #9E9E9E",
".#	c #B6B6B6",
"+#	c #C0C0C0",
"@#	c #999595",
"##	c #9D958F",
"$#	c #777669",
"%#	c #B1B1B0",
"&#	c #8C8C85",
"*#	c #A9A29D",
"=#	c #CDC2C2",
"-#	c #918989",
";#	c #A2A2A2",
">#	c #999999",
",#	c #A5A1A1",
"'#	c #969091",
")#	c #A3A4A4",
"!#	c #9C9B9C",
"~#	c #AAA1A1",
"{#	c #979696",
"]#	c #968F8F",
"^#	c #A19999",
"                                                                                ",
"                                                                                ",
"                                  . + @ # $ % &                                 ",
"                            * = - ; > , ' ) ! ~ { #                             ",
"                          ] ^ / ( _ : < ' [ [ ' } [ | 1                         ",
"                      2 * 3 ( 4 5 6 7 8 [ [ [ 9 0 [ a b c                       ",
"                      d e % f g h i j 7 ' [ k f l m n o p q                     ",
"                    r s t m u k v w x k [ [ [ y z A B C D E                     ",
"                    F G H k [ I J D u [ [ [ [ } K L M N , O P                   ",
"                  Q R S ' [ u T U } [ [ [ [ [ k f V } W X 7 Y                   ",
"                  Z `  .k [ [ ..< k [ [ [ [ [ [ +.@.#.} $.o %.                  ",
"                  &.*.=.k [ 9 -.;.[ [ [ [ [ [ [ ;.@ >.' +.,.'.                  ",
"                ).!.~.{.} k ].l [ [ [ [ [ [ [ [ ! ^./.[ ~ (._.:.                ",
"                <.[.,.}.} ! |.i k [ [ [ [ [ [ [ #./ ! [ 9 1.5 2.3.              ",
"              4.5.6.7.8.[ 9.i 0.0.[ [ [ [ [ [ [ ) a.b.} k c.d.e.f.              ",
"              g.Z h.7.i.j.k.9 l.m.n.[ [ [ [ [ [ [ ) o.p.m 6 q.8.r.              ",
"                s.t.u.- /.v.w.x.y.z.! [ [ [ [ [ u A.B.C.D.E.F.G.H.              ",
"                I.J.K.}.L.M.N.O.P.Q.R.k [ [ [ [ S.T.U.V.W.i '.=.X.              ",
"                Y.Z.`.5 }  +.+++@+#+$+[ [ [ [ [ %+&+*+=+-+;+>+,+                ",
"                '+)+!+L [ ~+{+]+^+/+[ [ k (+(+u k _+:+<+[+! }+|+                ",
"                  s.1+2+3+k 4+| 7 ) k 5+6+7+8+9+/.u 0+a+[ b+c+                  ",
"                    d+e+9+f+[ k k k 7 g+h+i+j+k+l+m+k [ k ].                    ",
"                      n+o+5 ) k p+R.q+r+s+t+u+v+w+x+y+k z+                      ",
"                        5.A+B+C+D+E+F+G+H+I+J+K+L+M+N+ .                        ",
"                            O+P+Q+C R+S+T+U+V+W+X+Y+Z+                          ",
"                            `+ @.@@ +@@@#@H.$@%@&@*@=@                          ",
"                            -@;@>@M ,@=.'@3+W )@5 =.!@                          ",
"                          ~@{@]@^@'./@(@_@W+T :@7 !@$.<@                        ",
"                          [@}@|@n.3+k k W J 1@#.j.2@} 3@                        ",
"                          4@5@6@2@k 7@8@*@9@%.0@1.(@W a@                        ",
"                            b@c@7.d@3@e@%.9 f@g@h@i@                            ",
"                              .@j@k@l@m@5 n@o@p@q@r@                            ",
"                            `+s@t@u@v@w@x@y@z@A@B@C@D@                          ",
"                            E@F@G@H@I@J@K@L@M@N@O@~ P@                          ",
"                            Q@R@3@S@T@U@V@W@X@Y@Z@/.`@                          ",
"                           #.#+#@#6 #.##$#%#&#*#b+k =#-#                        ",
"                          ;#>#,#,@k } H@'#)#!#~#/ /@$@Z+                        ",
"                            {#]#(.$@^#2+                                        ",
"                                                                                ",
"                                                                                "};
